<svg width="22" height="25" viewBox="0 0 22 25" fill="none" xmlns="http://www.w3.org/2000/svg">
<path d="M10.7783 24.5C12.4352 24.5 13.7783 23.1569 13.7783 21.5H7.77832C7.77832 23.1569 9.12147 24.5 10.7783 24.5Z" fill="white"/>
<path d="M10.7783 3.37737L9.58253 3.61888C6.84161 4.17243 4.77835 6.59694 4.77835 9.5C4.77835 10.4417 4.57681 12.7959 4.09005 15.1132C3.84842 16.2636 3.52513 17.4614 3.09546 18.5H18.4612C18.0315 17.4614 17.7082 16.2636 17.4666 15.1132C16.9799 12.7959 16.7784 10.4417 16.7784 9.5C16.7784 6.59693 14.7151 4.1724 11.9741 3.61887L10.7783 3.37737ZM20.1073 18.5C20.4422 19.1711 20.8305 19.7015 21.2783 20H0.27832C0.726111 19.7015 1.11449 19.1711 1.44937 18.5C2.79715 15.7991 3.27835 10.8187 3.27835 9.5C3.27835 5.86901 5.85862 2.84067 9.28558 2.14856C9.28078 2.09969 9.27832 2.05013 9.27832 2C9.27832 1.17157 9.94989 0.5 10.7783 0.5C11.6067 0.5 12.2783 1.17157 12.2783 2C12.2783 2.05013 12.2759 2.09968 12.2711 2.14855C15.6981 2.84063 18.2784 5.86899 18.2784 9.5C18.2784 10.8187 18.7595 15.7991 20.1073 18.5Z" fill="white"/>
</svg>
