<svg width="28" height="29" viewBox="0 0 28 29" fill="none" xmlns="http://www.w3.org/2000/svg">
<path d="M14.3222 2.44741C14.121 2.36397 13.8966 2.36397 13.6954 2.44741L3.62441 6.62502L14.0088 10.9326L24.3932 6.62502L14.3222 2.44741ZM25.8213 7.91742L14.8525 12.4674V26.3326L25.8213 21.7826V7.91742ZM13.165 26.3326V12.4674L2.19629 7.91742V21.7826L13.165 26.3326ZM13.0687 0.822575C13.6722 0.572244 14.3454 0.572244 14.9489 0.822575L26.9784 5.8126C27.2987 5.94548 27.5088 6.26723 27.5088 6.62502V21.7826C27.5088 22.4982 27.0887 23.1417 26.448 23.4074L14.3222 28.4374C14.121 28.5209 13.8966 28.5209 13.6954 28.4374L1.56957 23.4074C0.928894 23.1417 0.508789 22.4982 0.508789 21.7826V6.62502C0.508789 6.26723 0.718841 5.94548 1.03918 5.8126L13.0687 0.822575Z" fill="white"/>
</svg>
