<svg width="64" height="59" viewBox="0 0 64 59" fill="none" xmlns="http://www.w3.org/2000/svg">
<path d="M60 44.25C60 46.2866 58.2091 47.9375 56 47.9375H8C5.79086 47.9375 4 46.2865 4 44.25V22.125C4 20.0885 5.79086 18.4375 8 18.4375H12.6863C15.8689 18.4375 18.9211 17.272 21.1716 15.1974L24.4853 12.1425C25.2354 11.451 26.2528 11.0625 27.3137 11.0625H36.6863C37.7472 11.0625 38.7646 11.451 39.5147 12.1425L42.8284 15.1974C45.0789 17.272 48.1311 18.4375 51.3137 18.4375H56C58.2091 18.4375 60 20.0885 60 22.125V44.25ZM8 14.75C3.58172 14.75 0 18.0519 0 22.125V44.25C0 48.3231 3.58172 51.625 8 51.625H56C60.4183 51.625 64 48.3231 64 44.25V22.125C64 18.0519 60.4183 14.75 56 14.75H51.3137C49.192 14.75 47.1571 13.973 45.6569 12.5899L42.3431 9.53509C40.8429 8.15201 38.808 7.375 36.6863 7.375H27.3137C25.192 7.375 23.1571 8.152 21.6569 9.53508L18.3431 12.5899C16.8429 13.973 14.808 14.75 12.6863 14.75H8Z" fill="#003F62"/>
<path d="M32 40.5625C26.4772 40.5625 22 36.4351 22 31.3438C22 26.2524 26.4772 22.125 32 22.125C37.5229 22.125 42 26.2524 42 31.3438C42 36.4351 37.5229 40.5625 32 40.5625ZM32 44.25C39.732 44.25 46 38.4717 46 31.3438C46 24.2158 39.732 18.4375 32 18.4375C24.268 18.4375 18 24.2158 18 31.3438C18 38.4717 24.268 44.25 32 44.25Z" fill="#003F62"/>
<path d="M12 23.9688C12 24.987 11.1046 25.8125 10 25.8125C8.89543 25.8125 8 24.987 8 23.9688C8 22.9505 8.89543 22.125 10 22.125C11.1046 22.125 12 22.9505 12 23.9688Z" fill="#003F62"/>
</svg>
