<svg width="69" height="65" viewBox="0 0 69 65" fill="none" xmlns="http://www.w3.org/2000/svg">
<path fill-rule="evenodd" clip-rule="evenodd" d="M0 20.3125C0 15.8252 3.86154 12.1875 8.625 12.1875H40.9688C45.3495 12.1875 48.9674 15.2641 49.5205 19.2488L62.936 13.632C65.7878 12.438 69 14.4045 69 17.3444V47.6556C69 50.5955 65.7878 52.562 62.936 51.368L49.5205 45.7512C48.9674 49.7359 45.3495 52.8125 40.9688 52.8125H8.625C3.86154 52.8125 0 49.1748 0 44.6875V20.3125ZM49.5938 41.3362L64.6875 47.6556L64.6875 17.3444L49.5938 23.6638V41.3362ZM8.625 16.25C6.24327 16.25 4.3125 18.0688 4.3125 20.3125V44.6875C4.3125 46.9312 6.24327 48.75 8.625 48.75H40.9688C43.3505 48.75 45.2812 46.9312 45.2812 44.6875V20.3125C45.2812 18.0688 43.3505 16.25 40.9688 16.25H8.625Z" fill="#003F62"/>
</svg>
