<svg width="36" height="29" viewBox="0 0 36 29" fill="none" xmlns="http://www.w3.org/2000/svg">
<path d="M0.508789 3.125C0.508789 2.64175 0.998478 2.25 1.60254 2.25H4.88379C5.38568 2.25 5.82316 2.52326 5.94488 2.91278L6.83151 5.75H32.2275C32.5552 5.75 32.8656 5.86753 33.0734 6.07026C33.2811 6.27299 33.3643 6.53955 33.3 6.7966L31.1126 15.5466C31.0143 15.9395 30.5951 16.2288 30.0948 16.2489L9.53926 17.0737L10.1665 19.75H28.9463C29.5504 19.75 30.04 20.1418 30.04 20.625C30.04 21.1082 29.5504 21.5 28.9463 21.5H26.7588H11.4463H9.25879C8.73246 21.5 8.28077 21.2001 8.18377 20.7863L4.90853 6.8119L4.02981 4H1.60254C0.998478 4 0.508789 3.60825 0.508789 3.125ZM7.29543 7.5L9.13242 15.3378L29.1346 14.5352L30.8934 7.5H7.29543ZM11.4463 21.5C9.03004 21.5 7.07129 23.067 7.07129 25C7.07129 26.933 9.03004 28.5 11.4463 28.5C13.8625 28.5 15.8213 26.933 15.8213 25C15.8213 23.067 13.8625 21.5 11.4463 21.5ZM26.7588 21.5C24.3425 21.5 22.3838 23.067 22.3838 25C22.3838 26.933 24.3425 28.5 26.7588 28.5C29.175 28.5 31.1338 26.933 31.1338 25C31.1338 23.067 29.175 21.5 26.7588 21.5ZM11.4463 23.25C12.6544 23.25 13.6338 24.0335 13.6338 25C13.6338 25.9665 12.6544 26.75 11.4463 26.75C10.2382 26.75 9.25879 25.9665 9.25879 25C9.25879 24.0335 10.2382 23.25 11.4463 23.25ZM26.7588 23.25C27.9669 23.25 28.9463 24.0335 28.9463 25C28.9463 25.9665 27.9669 26.75 26.7588 26.75C25.5507 26.75 24.5713 25.9665 24.5713 25C24.5713 24.0335 25.5507 23.25 26.7588 23.25Z" fill="white"/>
</svg>
