<svg width="32" height="32" viewBox="0 0 32 32" fill="none" xmlns="http://www.w3.org/2000/svg">
<path d="M22.2207 2.68077C24.1387 2.5609 26.0301 3.22687 27.4553 4.53219C28.7607 5.95738 29.4267 7.84876 29.3201 9.78009V22.2206C29.44 24.1519 28.7607 26.0433 27.4687 27.4685C26.0435 28.7738 24.1387 29.4398 22.2207 29.3199H9.78015C7.8488 29.4398 5.95741 28.7738 4.53221 27.4685C3.22688 26.0433 2.5609 24.1519 2.68077 22.2206V9.78009C2.5609 7.84876 3.22688 5.95738 4.53221 4.53219C5.95741 3.22687 7.8488 2.5609 9.78015 2.68077H22.2207ZM21.8744 8.76781C21.0486 7.942 19.7166 7.942 18.8908 8.76781L17.9984 9.67354C17.8652 9.80673 17.8652 10.0332 17.9984 10.1664C17.9984 10.1664 18.0245 10.1923 18.0711 10.2386L18.3987 10.5644C18.5882 10.753 18.8248 10.9885 19.0623 11.2253L19.8677 12.0303C20.0358 12.1992 20.1473 12.3123 20.1562 12.3241C20.3027 12.484 20.3959 12.6971 20.3959 12.9368C20.3959 13.4163 20.0097 13.8159 19.5168 13.8159C19.2904 13.8159 19.0773 13.7227 18.9308 13.5762L16.7064 11.3651C16.5998 11.2586 16.4133 11.2586 16.3068 11.3651L9.95331 17.7185C9.51376 18.1581 9.26068 18.7442 9.24737 19.3702L9.16745 22.5269C9.16745 22.7001 9.22073 22.8599 9.3406 22.9798C9.46048 23.0996 9.62032 23.1662 9.79347 23.1662H12.9236C13.5629 23.1662 14.1756 22.9132 14.6418 22.4603L23.606 13.4696C24.4185 12.6438 24.4185 11.3118 23.606 10.4994L21.8744 8.76781Z" fill="#5D7285"/>
</svg>
