<svg width="32" height="32" viewBox="0 0 32 32" fill="none" xmlns="http://www.w3.org/2000/svg">
<path d="M21.7787 2.66699C26.2978 2.66699 29.3337 5.83781 29.3337 10.556V21.4447C29.3337 26.1628 26.2978 29.3337 21.7774 29.3337H10.2219C5.70285 29.3337 2.66699 26.1628 2.66699 21.4447V10.556C2.66699 5.83781 5.70285 2.66699 10.2219 2.66699H21.7787ZM23.2491 16.7337C21.8199 15.8421 20.7164 17.0942 20.4188 17.4946C20.1318 17.8813 19.8851 18.3079 19.625 18.7344C18.9895 19.787 18.2615 21.0007 17.0011 21.7066C15.1696 22.7207 13.7793 21.7864 12.7791 21.1066C12.4036 20.8534 12.0389 20.614 11.6756 20.4544C10.78 20.0677 9.97416 20.5081 8.7782 22.0272C8.15072 22.8211 7.5286 23.6082 6.89844 24.3925C6.52168 24.8617 6.61151 25.5855 7.11966 25.8992C7.93083 26.3987 8.92032 26.667 10.0385 26.667H21.2755C21.9097 26.667 22.5452 26.5803 23.1512 26.3822C24.5161 25.9363 25.5995 24.9154 26.1653 23.5669C26.6426 22.4331 26.8746 21.0571 26.4281 19.9123C26.2793 19.5325 26.0567 19.1789 25.7443 18.8679C24.9251 18.0547 24.1595 17.2951 23.2491 16.7337ZM11.3321 8.00033C9.49394 8.00033 8.00033 9.49597 8.00033 11.3337C8.00033 13.1714 9.49394 14.667 11.3321 14.667C13.169 14.667 14.6639 13.1714 14.6639 11.3337C14.6639 9.49597 13.169 8.00033 11.3321 8.00033Z" fill="#5D7285"/>
</svg>
