<svg width="22" height="21" viewBox="0 0 22 21" fill="none" xmlns="http://www.w3.org/2000/svg">
<path d="M15.2158 8C15.2158 10.0711 13.4529 11.75 11.2783 11.75C9.1037 11.75 7.34082 10.0711 7.34082 8C7.34082 5.92893 9.1037 4.25 11.2783 4.25C13.4529 4.25 15.2158 5.92893 15.2158 8Z" fill="white"/>
<path fill-rule="evenodd" clip-rule="evenodd" d="M0.77832 10.5C0.77832 4.97715 5.47933 0.5 11.2783 0.5C17.0773 0.5 21.7783 4.97715 21.7783 10.5C21.7783 16.0228 17.0773 20.5 11.2783 20.5C5.47933 20.5 0.77832 16.0228 0.77832 10.5ZM11.2783 1.75C6.2042 1.75 2.09082 5.66751 2.09082 10.5C2.09082 12.5668 2.84322 14.4662 4.10139 15.9634C5.03467 14.5316 7.08441 13 11.2783 13C15.4722 13 17.522 14.5316 18.4553 15.9634C19.7134 14.4662 20.4658 12.5668 20.4658 10.5C20.4658 5.66751 16.3524 1.75 11.2783 1.75Z" fill="white"/>
</svg>
