<svg width="387" height="70" viewBox="0 0 387 70" fill="none" xmlns="http://www.w3.org/2000/svg">
<path d="M11.9518 64.9721C11.6274 66.9122 13.4522 68.4309 15.0637 67.5619L33.3679 57.6921L51.6721 67.5619C53.2837 68.4309 55.1085 66.9122 54.784 64.9721L51.3238 44.2805L66.0129 29.5952C67.3856 28.2228 66.675 25.7135 64.836 25.4394L44.4081 22.395L35.2997 3.46633C34.4792 1.76122 32.2566 1.76122 31.4361 3.46633L22.3278 22.395L1.89987 25.4394C0.0608346 25.7135 -0.649778 28.2228 0.72299 29.5952L15.412 44.2805L11.9518 64.9721ZM32.4053 52.8614L17.0348 61.1494L19.93 43.8362C20.0665 43.0201 19.8099 42.1844 19.2513 41.6259L7.12903 29.5068L24.0282 26.9882C24.7268 26.8841 25.3368 26.416 25.6663 25.7312L33.3679 9.72596L41.0695 25.7312C41.3991 26.416 42.0091 26.8841 42.7077 26.9882L59.6068 29.5068L47.4846 41.6259C46.926 42.1844 46.6694 43.0201 46.8059 43.8362L49.7011 61.1494L34.3305 52.8614C33.7234 52.5341 33.0125 52.5341 32.4053 52.8614Z" fill="black"/>
<path d="M92.0202 64.9721C91.6958 66.9122 93.5205 68.4309 95.1321 67.5619L113.436 57.6921L131.74 67.5619C133.352 68.4309 135.177 66.9122 134.852 64.9721L131.392 44.2805L146.081 29.5952C147.454 28.2228 146.743 25.7135 144.904 25.4394L124.476 22.395L115.368 3.46633C114.548 1.76122 112.325 1.76122 111.504 3.46633L102.396 22.395L81.9682 25.4394C80.1292 25.7135 79.4186 28.2228 80.7913 29.5952L95.4804 44.2805L92.0202 64.9721ZM112.474 52.8614L97.1031 61.1494L99.9984 43.8362C100.135 43.0201 99.8782 42.1844 99.3197 41.6259L87.1974 29.5068L104.097 26.9882C104.795 26.8841 105.405 26.416 105.735 25.7312L113.436 9.72596L121.138 25.7312C121.467 26.416 122.077 26.8841 122.776 26.9882L139.675 29.5068L127.553 41.6259C126.994 42.1844 126.738 43.0201 126.874 43.8362L129.769 61.1494L114.399 52.8614C113.792 52.5341 113.081 52.5341 112.474 52.8614Z" fill="black"/>
<path d="M172.091 64.9721C171.766 66.9122 173.591 68.4309 175.202 67.5619L193.507 57.6921L211.811 67.5619C213.422 68.4309 215.247 66.9122 214.923 64.9721L211.463 44.2805L226.152 29.5952C227.524 28.2228 226.814 25.7135 224.975 25.4394L204.547 22.395L195.438 3.46633C194.618 1.76122 192.395 1.76122 191.575 3.46633L182.466 22.395L162.039 25.4394C160.2 25.7135 159.489 28.2228 160.862 29.5952L175.551 44.2805L172.091 64.9721ZM192.544 52.8614L177.173 61.1494L180.069 43.8362C180.205 43.0201 179.949 42.1844 179.39 41.6259L167.268 29.5068L184.167 26.9882C184.865 26.8841 185.475 26.416 185.805 25.7312L193.507 9.72596L201.208 25.7312C201.538 26.416 202.148 26.8841 202.846 26.9882L219.745 29.5068L207.623 41.6259C207.065 42.1844 206.808 43.0201 206.945 43.8362L209.84 61.1494L194.469 52.8614C193.862 52.5341 193.151 52.5341 192.544 52.8614Z" fill="black"/>
<path d="M252.159 64.9721C251.834 66.9122 253.659 68.4309 255.271 67.5619L273.575 57.6921L291.879 67.5619C293.491 68.4309 295.315 66.9122 294.991 64.9721L291.531 44.2805L306.22 29.5952C307.593 28.2228 306.882 25.7135 305.043 25.4394L284.615 22.395L275.507 3.46633C274.686 1.76122 272.464 1.76122 271.643 3.46633L262.535 22.395L242.107 25.4394C240.268 25.7135 239.557 28.2228 240.93 29.5952L255.619 44.2805L252.159 64.9721ZM272.612 52.8614L257.242 61.1494L260.137 43.8362C260.274 43.0201 260.017 42.1844 259.458 41.6259L247.336 29.5068L264.235 26.9882C264.934 26.8841 265.544 26.416 265.873 25.7312L273.575 9.72596L281.277 25.7312C281.606 26.416 282.216 26.8841 282.915 26.9882L299.814 29.5068L287.692 41.6259C287.133 42.1844 286.876 43.0201 287.013 43.8362L289.908 61.1494L274.538 52.8614C273.93 52.5341 273.22 52.5341 272.612 52.8614Z" fill="black"/>
<path d="M332.227 64.9721C331.903 66.9122 333.728 68.4309 335.339 67.5619L353.643 57.6921L371.948 67.5619C373.559 68.4309 375.384 66.9122 375.059 64.9721L371.599 44.2805L386.288 29.5952C387.661 28.2228 386.95 25.7135 385.111 25.4394L364.683 22.395L355.575 3.46633C354.755 1.76122 352.532 1.76122 351.712 3.46633L342.603 22.395L322.175 25.4394C320.336 25.7135 319.626 28.2228 320.998 29.5952L335.687 44.2805L332.227 64.9721ZM352.681 52.8614L337.31 61.1494L340.205 43.8362C340.342 43.0201 340.085 42.1844 339.527 41.6259L327.404 29.5068L344.304 26.9882C345.002 26.8841 345.612 26.416 345.942 25.7312L353.643 9.72596L361.345 25.7312C361.674 26.416 362.284 26.8841 362.983 26.9882L379.882 29.5068L367.76 41.6259C367.201 42.1844 366.945 43.0201 367.081 43.8362L369.976 61.1494L354.606 52.8614C353.999 52.5341 353.288 52.5341 352.681 52.8614Z" fill="black"/>
</svg>
