<svg width="18" height="18" viewBox="0 0 18 18" fill="none" xmlns="http://www.w3.org/2000/svg">
<path d="M12.7549 11.0713H11.9649L11.6849 10.8013C12.6649 9.66129 13.2549 8.18129 13.2549 6.57129C13.2549 2.98129 10.3449 0.0712891 6.75488 0.0712891C3.16488 0.0712891 0.254883 2.98129 0.254883 6.57129C0.254883 10.1613 3.16488 13.0713 6.75488 13.0713C8.36488 13.0713 9.84488 12.4813 10.9849 11.5013L11.2549 11.7813V12.5713L16.2549 17.5613L17.7449 16.0713L12.7549 11.0713ZM6.75488 11.0713C4.26488 11.0713 2.25488 9.06129 2.25488 6.57129C2.25488 4.08129 4.26488 2.07129 6.75488 2.07129C9.24488 2.07129 11.2549 4.08129 11.2549 6.57129C11.2549 9.06129 9.24488 11.0713 6.75488 11.0713Z" fill="#666E73"/>
</svg>
