<svg width="22" height="19" viewBox="0 0 22 19" fill="none" xmlns="http://www.w3.org/2000/svg">
<path d="M16.1455 12.2834C17.2328 11.0049 17.875 9.42661 17.875 7.71875C17.875 3.4558 13.8735 0 8.9375 0C4.00146 0 0 3.4558 0 7.71875C0 11.9817 4.00146 15.4375 8.9375 15.4375C10.9156 15.4375 12.7435 14.8825 14.224 13.9431L14.2228 13.9438C14.2634 13.9913 14.3086 14.0368 14.3583 14.0798L19.6527 18.6522C20.1897 19.1159 21.0603 19.1159 21.5973 18.6522C22.1342 18.1884 22.1342 17.4366 21.5973 16.9728L16.3029 12.4004C16.2531 12.3574 16.2005 12.3184 16.1455 12.2834ZM16.5 7.71875C16.5 11.3259 13.1142 14.25 8.9375 14.25C4.76085 14.25 1.375 11.3259 1.375 7.71875C1.375 4.11164 4.76085 1.1875 8.9375 1.1875C13.1142 1.1875 16.5 4.11164 16.5 7.71875Z" fill="#EDA415"/>
</svg>
