<svg width="67" height="70" viewBox="0 0 67 70" fill="none" xmlns="http://www.w3.org/2000/svg">
<path d="M11.9518 64.9721C11.6274 66.9122 13.4522 68.4309 15.0637 67.5619L33.3679 57.6921L51.6721 67.5619C53.2837 68.4309 55.1085 66.9122 54.784 64.9721L51.3238 44.2805L66.0129 29.5952C67.3856 28.2228 66.675 25.7135 64.836 25.4394L44.4081 22.395L35.2997 3.46633C34.4792 1.76122 32.2566 1.76122 31.4361 3.46633L22.3278 22.395L1.89987 25.4394C0.0608346 25.7135 -0.649778 28.2228 0.72299 29.5952L15.412 44.2805L11.9518 64.9721ZM32.4053 52.8614L17.0348 61.1494L19.93 43.8362C20.0665 43.0201 19.8099 42.1844 19.2513 41.6259L7.12903 29.5068L24.0282 26.9882C24.7268 26.8841 25.3368 26.416 25.6663 25.7312L33.3679 9.72596L41.0695 25.7312C41.3991 26.416 42.0091 26.8841 42.7077 26.9882L59.6068 29.5068L47.4846 41.6259C46.926 42.1844 46.6694 43.0201 46.8059 43.8362L49.7011 61.1494L34.3305 52.8614C33.7234 52.5341 33.0125 52.5341 32.4053 52.8614Z" fill="black"/>
</svg>
