<svg width="23" height="22" viewBox="0 0 23 22" fill="none" xmlns="http://www.w3.org/2000/svg">
<path d="M12.1871 0.915792C11.6076 0.361404 10.6681 0.361401 10.0886 0.915792L0.226097 10.3511C-0.0636468 10.6283 -0.0636468 11.0777 0.226097 11.3549C0.515842 11.6321 0.985609 11.6321 1.27535 11.3549L2.2346 10.4372V17.951C2.2346 19.127 3.23112 20.0804 4.4604 20.0804L10.3959 20.0804C10.8056 20.0804 11.1378 19.7626 11.1378 19.3706C11.1378 18.9786 10.8056 18.6608 10.3959 18.6608L4.4604 18.6608C4.05064 18.6608 3.71847 18.343 3.71847 17.951V9.0176L11.1378 1.9196L21.0003 11.3549C21.29 11.6321 21.7598 11.6321 22.0495 11.3549C22.3393 11.0777 22.3393 10.6283 22.0495 10.3511L18.5572 7.00999V2.33539C18.5572 1.94338 18.225 1.62559 17.8152 1.62559H16.3314C15.9216 1.62559 15.5894 1.94338 15.5894 2.33539V4.17078L12.1871 0.915792Z" fill="white"/>
<path d="M23.0088 16.5314C23.0088 19.2755 20.6836 21.5 17.8152 21.5C14.9469 21.5 12.6217 19.2755 12.6217 16.5314C12.6217 13.7873 14.9469 11.5628 17.8152 11.5628C20.6836 11.5628 23.0088 13.7873 23.0088 16.5314ZM17.8152 13.6922C17.4055 13.6922 17.0733 14.01 17.0733 14.402V15.8216H15.5894C15.1797 15.8216 14.8475 16.1394 14.8475 16.5314C14.8475 16.9234 15.1797 17.2412 15.5894 17.2412H17.0733V18.6608C17.0733 19.0528 17.4055 19.3706 17.8152 19.3706C18.225 19.3706 18.5572 19.0528 18.5572 18.6608V17.2412H20.041C20.4508 17.2412 20.783 16.9234 20.783 16.5314C20.783 16.1394 20.4508 15.8216 20.041 15.8216H18.5572V14.402C18.5572 14.01 18.225 13.6922 17.8152 13.6922Z" fill="white"/>
</svg>
