<svg width="461" height="267" viewBox="0 0 461 267" fill="none" xmlns="http://www.w3.org/2000/svg">
<path d="M414.119 197.733H303.031C302.076 197.731 301.161 197.286 300.485 196.496C299.81 195.707 299.43 194.636 299.429 193.519V4.2135C299.43 3.0966 299.81 2.02598 300.485 1.2362C301.161 0.446431 302.076 0.00190112 303.031 0H414.119C415.075 -1.62254e-06 415.992 0.443689 416.669 1.23367C417.345 2.02365 417.726 3.09535 417.727 4.2135V193.519C417.726 194.637 417.345 195.709 416.669 196.499C415.992 197.289 415.075 197.733 414.119 197.733ZM303.031 0.179757C302.116 0.179757 301.239 0.60474 300.592 1.36121C299.946 2.11769 299.582 3.14369 299.582 4.2135V193.519C299.582 194.589 299.946 195.615 300.592 196.371C301.239 197.128 302.116 197.553 303.031 197.553H414.119C415.034 197.553 415.912 197.128 416.56 196.372C417.207 195.616 417.572 194.59 417.574 193.519V4.2135C417.572 3.14303 417.207 2.11704 416.56 1.36078C415.912 0.604507 415.034 0.179755 414.119 0.179757H303.031Z" fill="#E0E0E0"/>
<path d="M286.011 197.733H174.91C173.955 197.731 173.04 197.286 172.364 196.496C171.689 195.707 171.309 194.636 171.308 193.519V4.2135C171.309 3.0966 171.689 2.02598 172.364 1.2362C173.04 0.446431 173.955 0.00190112 174.91 0H286.011C286.965 0.00190112 287.881 0.446431 288.556 1.2362C289.231 2.02598 289.611 3.0966 289.613 4.2135V193.519C289.611 194.636 289.231 195.707 288.556 196.496C287.881 197.286 286.965 197.731 286.011 197.733ZM174.91 0.179757C174.001 0.191105 173.133 0.620863 172.493 1.37591C171.853 2.13095 171.494 3.15046 171.492 4.2135V193.519C171.494 194.588 171.857 195.613 172.504 196.369C173.15 197.125 174.026 197.551 174.94 197.553H286.011C286.925 197.551 287.801 197.125 288.447 196.369C289.093 195.613 289.457 194.588 289.459 193.519V4.2135C289.457 3.14427 289.093 2.11937 288.447 1.36331C287.801 0.60725 286.925 0.181658 286.011 0.179757H174.91Z" fill="#E0E0E0"/>
<path d="M157.969 197.733H46.8806C45.9247 197.733 45.0079 197.289 44.3314 196.499C43.6549 195.709 43.2741 194.637 43.2725 193.519V4.2135C43.2741 3.09535 43.6549 2.02365 44.3314 1.23367C45.0079 0.443689 45.9247 -1.62254e-06 46.8806 0H157.969C158.924 0.00190112 159.839 0.446431 160.514 1.2362C161.19 2.02598 161.57 3.0966 161.571 4.2135V193.519C161.57 194.636 161.19 195.707 160.514 196.496C159.839 197.286 158.924 197.731 157.969 197.733ZM46.8806 0.179757C45.9654 0.179755 45.0877 0.604507 44.4401 1.36078C43.7924 2.11704 43.4278 3.14303 43.4261 4.2135V193.519C43.4278 194.59 43.7924 195.616 44.4401 196.372C45.0877 197.128 45.9654 197.553 46.8806 197.553H157.969C158.884 197.553 159.761 197.128 160.408 196.371C161.054 195.615 161.418 194.589 161.418 193.519V4.2135C161.418 3.14369 161.054 2.11769 160.408 1.36121C159.761 0.60474 158.884 0.179757 157.969 0.179757H46.8806Z" fill="#E0E0E0"/>
<path d="M461 241.644H0V241.73H461V241.644Z" fill="#E0E0E0"/>
<path d="M152.087 45.2772C154.967 41.9434 158.859 40.0789 162.91 40.0914C166.962 40.1038 170.845 41.9922 173.71 45.3436C176.575 48.6951 178.189 53.2371 178.2 57.9768C178.21 62.7165 176.617 67.2683 173.767 70.6373L165.106 80.7684C164.821 81.1032 164.481 81.3689 164.108 81.5501C163.735 81.7314 163.334 81.8246 162.93 81.8246C162.526 81.8246 162.126 81.7314 161.752 81.5501C161.379 81.3689 161.04 81.1032 160.754 80.7684L152.087 70.6301C149.214 67.2674 147.601 62.7079 147.601 57.9537C147.601 53.1995 149.214 48.6399 152.087 45.2772ZM162.93 66.2944C164.338 66.2944 165.714 65.8061 166.885 64.8912C168.055 63.9763 168.967 62.6759 169.506 61.1544C170.045 59.633 170.186 57.9588 169.911 56.3437C169.637 54.7285 168.959 53.2449 167.963 52.0805C166.968 50.916 165.699 50.123 164.319 49.8017C162.938 49.4804 161.507 49.6453 160.206 50.2755C158.906 50.9057 157.794 51.9729 157.012 53.3422C156.23 54.7115 155.812 56.3213 155.812 57.9681C155.815 60.1739 156.567 62.288 157.901 63.8464C159.236 65.4048 161.044 66.28 162.93 66.28V66.2944Z" fill="#E6E6E6"/>
<path d="M407.266 132.33V98.1762H389.189V105.963H377.141V20.6362H353.968V54.222H347.016V37.4543H328.939V119.237H303.443V90.3388H287.461V27.6899H267.731V69.4582H249.192V159.437H234.828V115.62H219.996V87.4267H204.236V65.784L186.656 76.6269V134.537H168.118V122.594H143.347V206.527L431.631 206.692V132.33H407.266Z" fill="#EBEBEB"/>
<path d="M221.201 206.577V81.6958H201.531V206.692C207.758 206.512 221.201 206.577 221.201 206.577Z" fill="#E6E6E6"/>
<path d="M203.264 206.692V138.01H162.727V206.541L203.264 206.692Z" fill="#FAFAFA"/>
<path d="M252.517 206.591V105.762H229.553V206.577L252.517 206.591Z" fill="#E0E0E0"/>
<path d="M234.083 109.717H231.299V116.433H234.083V109.717Z" fill="#FAFAFA"/>
<path d="M239.647 109.717H236.862V116.433H239.647V109.717Z" fill="#FAFAFA"/>
<path d="M245.215 109.717H242.431V116.433H245.215V109.717Z" fill="#FAFAFA"/>
<path d="M250.783 109.717H247.999V116.433H250.783V109.717Z" fill="#FAFAFA"/>
<path d="M234.083 120.984H231.299V127.7H234.083V120.984Z" fill="#FAFAFA"/>
<path d="M239.647 120.984H236.862V127.7H239.647V120.984Z" fill="#FAFAFA"/>
<path d="M245.215 120.984H242.431V127.7H245.215V120.984Z" fill="#FAFAFA"/>
<path d="M250.783 120.984H247.999V127.7H250.783V120.984Z" fill="#FAFAFA"/>
<path d="M234.083 132.244H231.299V138.959H234.083V132.244Z" fill="#FAFAFA"/>
<path d="M239.647 132.244H236.862V138.959H239.647V132.244Z" fill="#FAFAFA"/>
<path d="M245.215 132.244H242.431V138.959H245.215V132.244Z" fill="#FAFAFA"/>
<path d="M250.783 132.244H247.999V138.959H250.783V132.244Z" fill="#FAFAFA"/>
<path d="M234.083 143.504H231.299V150.22H234.083V143.504Z" fill="#FAFAFA"/>
<path d="M239.647 143.504H236.862V150.22H239.647V143.504Z" fill="#FAFAFA"/>
<path d="M245.215 143.504H242.431V150.22H245.215V143.504Z" fill="#FAFAFA"/>
<path d="M250.783 143.504H247.999V150.22H250.783V143.504Z" fill="#FAFAFA"/>
<path d="M234.083 154.764H231.299V161.479H234.083V154.764Z" fill="#FAFAFA"/>
<path d="M239.647 154.764H236.862V161.479H239.647V154.764Z" fill="#FAFAFA"/>
<path d="M245.215 154.764H242.431V161.479H245.215V154.764Z" fill="#FAFAFA"/>
<path d="M250.783 154.764H247.999V161.479H250.783V154.764Z" fill="#FAFAFA"/>
<path d="M234.083 166.023H231.299V172.739H234.083V166.023Z" fill="#FAFAFA"/>
<path d="M239.647 166.023H236.862V172.739H239.647V166.023Z" fill="#FAFAFA"/>
<path d="M245.215 166.023H242.431V172.739H245.215V166.023Z" fill="#FAFAFA"/>
<path d="M250.783 166.023H247.999V172.739H250.783V166.023Z" fill="#FAFAFA"/>
<path d="M234.083 177.284H231.299V183.999H234.083V177.284Z" fill="#FAFAFA"/>
<path d="M239.647 177.284H236.862V183.999H239.647V177.284Z" fill="#FAFAFA"/>
<path d="M245.215 177.284H242.431V183.999H245.215V177.284Z" fill="#FAFAFA"/>
<path d="M250.783 177.284H247.999V183.999H250.783V177.284Z" fill="#FAFAFA"/>
<path d="M234.083 188.551H231.299V195.266H234.083V188.551Z" fill="#FAFAFA"/>
<path d="M239.647 188.551H236.862V195.266H239.647V188.551Z" fill="#FAFAFA"/>
<path d="M245.215 188.551H242.431V195.266H245.215V188.551Z" fill="#FAFAFA"/>
<path d="M250.783 188.551H247.999V195.266H250.783V188.551Z" fill="#FAFAFA"/>
<path d="M332.319 206.641V91.4028H284.707V206.677C284.707 206.677 331.956 206.692 332.319 206.641Z" fill="#F5F5F5"/>
<path d="M294.05 95.9976H288.278V103.734H294.05V95.9976Z" fill="#E6E6E6"/>
<path d="M305.606 95.9976H299.834V103.734H305.606V95.9976Z" fill="#E6E6E6"/>
<path d="M317.15 95.9976H311.378V103.734H317.15V95.9976Z" fill="#E6E6E6"/>
<path d="M328.699 95.9976H322.928V103.734H328.699V95.9976Z" fill="#E6E6E6"/>
<path d="M294.05 108.976H288.278V116.713H294.05V108.976Z" fill="#E6E6E6"/>
<path d="M305.606 108.976H299.834V116.713H305.606V108.976Z" fill="#E6E6E6"/>
<path d="M317.15 108.976H311.378V116.713H317.15V108.976Z" fill="#E6E6E6"/>
<path d="M328.699 108.976H322.928V116.713H328.699V108.976Z" fill="#E6E6E6"/>
<path d="M294.05 121.955H288.278V129.691H294.05V121.955Z" fill="#E6E6E6"/>
<path d="M305.606 121.955H299.834V129.691H305.606V121.955Z" fill="#E6E6E6"/>
<path d="M317.15 121.955H311.378V129.691H317.15V121.955Z" fill="#E6E6E6"/>
<path d="M328.699 121.955H322.928V129.691H328.699V121.955Z" fill="#E6E6E6"/>
<path d="M294.05 134.926H288.278V142.663H294.05V134.926Z" fill="#E6E6E6"/>
<path d="M305.606 134.926H299.834V142.663H305.606V134.926Z" fill="#E6E6E6"/>
<path d="M317.15 134.926H311.378V142.663H317.15V134.926Z" fill="#E6E6E6"/>
<path d="M328.699 134.926H322.928V142.663H328.699V134.926Z" fill="#E6E6E6"/>
<path d="M294.05 147.911H288.278V155.648H294.05V147.911Z" fill="#E6E6E6"/>
<path d="M305.606 147.911H299.834V155.648H305.606V147.911Z" fill="#E6E6E6"/>
<path d="M317.15 147.911H311.378V155.648H317.15V147.911Z" fill="#E6E6E6"/>
<path d="M328.699 147.911H322.928V155.648H328.699V147.911Z" fill="#E6E6E6"/>
<path d="M294.05 160.883H288.278V168.62H294.05V160.883Z" fill="#E6E6E6"/>
<path d="M305.606 160.883H299.834V168.62H305.606V160.883Z" fill="#E6E6E6"/>
<path d="M317.15 160.883H311.378V168.62H317.15V160.883Z" fill="#E6E6E6"/>
<path d="M328.699 160.883H322.928V168.62H328.699V160.883Z" fill="#E6E6E6"/>
<path d="M294.05 173.861H288.278V181.598H294.05V173.861Z" fill="#E6E6E6"/>
<path d="M305.606 173.861H299.834V181.598H305.606V173.861Z" fill="#E6E6E6"/>
<path d="M317.15 173.861H311.378V181.598H317.15V173.861Z" fill="#E6E6E6"/>
<path d="M328.699 173.861H322.928V181.598H328.699V173.861Z" fill="#E6E6E6"/>
<path d="M294.05 186.839H288.278V194.576H294.05V186.839Z" fill="#E6E6E6"/>
<path d="M305.606 186.839H299.834V194.576H305.606V186.839Z" fill="#E6E6E6"/>
<path d="M317.15 186.839H311.378V194.576H317.15V186.839Z" fill="#E6E6E6"/>
<path d="M328.699 186.839H322.928V194.576H328.699V186.839Z" fill="#E6E6E6"/>
<path d="M210.456 90.1807H205.139V97.3134H210.456V90.1807Z" fill="#FAFAFA"/>
<path d="M210.456 102.138H205.139V109.271H210.456V102.138Z" fill="#FAFAFA"/>
<path d="M210.456 114.103H205.139V121.235H210.456V114.103Z" fill="#FAFAFA"/>
<path d="M210.456 126.053H205.139V133.185H210.456V126.053Z" fill="#FAFAFA"/>
<path d="M210.456 138.01H205.139V145.143H210.456V138.01Z" fill="#FAFAFA"/>
<path d="M210.456 149.975H205.139V157.108H210.456V149.975Z" fill="#FAFAFA"/>
<path d="M210.456 161.932H205.139V169.065H210.456V161.932Z" fill="#FAFAFA"/>
<path d="M210.456 173.89H205.139V181.022H210.456V173.89Z" fill="#FAFAFA"/>
<path d="M217.567 90.1807H212.25V97.3134H217.567V90.1807Z" fill="#FAFAFA"/>
<path d="M217.567 102.138H212.25V109.271H217.567V102.138Z" fill="#FAFAFA"/>
<path d="M217.567 114.103H212.25V121.235H217.567V114.103Z" fill="#FAFAFA"/>
<path d="M217.567 126.053H212.25V133.185H217.567V126.053Z" fill="#FAFAFA"/>
<path d="M217.567 138.01H212.25V145.143H217.567V138.01Z" fill="#FAFAFA"/>
<path d="M217.567 149.975H212.25V157.108H217.567V149.975Z" fill="#FAFAFA"/>
<path d="M217.567 161.932H212.25V169.065H217.567V161.932Z" fill="#FAFAFA"/>
<path d="M217.567 173.89H212.25V181.022H217.567V173.89Z" fill="#FAFAFA"/>
<path d="M278.02 35.9805H272.248V43.7172H278.02V35.9805Z" fill="#FAFAFA"/>
<path d="M278.02 48.9517H272.248V56.6884H278.02V48.9517Z" fill="#FAFAFA"/>
<path d="M278.02 61.0454H272.248V68.7822H278.02V61.0454Z" fill="#FAFAFA"/>
<path d="M278.02 74.0166H272.248V81.7533H278.02V74.0166Z" fill="#FAFAFA"/>
<path d="M278.02 86.9883H272.248V94.725H278.02V86.9883Z" fill="#FAFAFA"/>
<path d="M278.02 99.9736H272.248V107.71H278.02V99.9736Z" fill="#FAFAFA"/>
<path d="M278.02 112.945H272.248V120.682H278.02V112.945Z" fill="#FAFAFA"/>
<path d="M278.02 125.931H272.248V133.667H278.02V125.931Z" fill="#FAFAFA"/>
<path d="M364.731 24.7275H358.959V32.4643H364.731V24.7275Z" fill="#FAFAFA"/>
<path d="M364.731 37.6987H358.959V45.4355H364.731V37.6987Z" fill="#FAFAFA"/>
<path d="M364.731 50.6846H358.959V58.4213H364.731V50.6846Z" fill="#FAFAFA"/>
<path d="M364.731 63.6558H358.959V71.3925H364.731V63.6558Z" fill="#FAFAFA"/>
<path d="M364.731 76.6411H358.959V84.3779H364.731V76.6411Z" fill="#FAFAFA"/>
<path d="M364.731 89.6128H358.959V97.3495H364.731V89.6128Z" fill="#FAFAFA"/>
<path d="M364.731 102.591H358.959V110.328H364.731V102.591Z" fill="#FAFAFA"/>
<path d="M364.731 115.569H358.959V123.306H364.731V115.569Z" fill="#FAFAFA"/>
<path d="M406.086 84.3423H371.32V206.692H406.086V84.3423Z" fill="#E6E6E6"/>
<path d="M386.656 90.3745H376.465V98.1112H386.656V90.3745Z" fill="#FAFAFA"/>
<path d="M386.656 103.36H376.465V111.097H386.656V103.36Z" fill="#FAFAFA"/>
<path d="M386.656 116.332H376.465V124.068H386.656V116.332Z" fill="#FAFAFA"/>
<path d="M386.656 129.31H376.465V137.047H386.656V129.31Z" fill="#FAFAFA"/>
<path d="M386.656 142.289H376.465V150.025H386.656V142.289Z" fill="#FAFAFA"/>
<path d="M386.656 155.26H376.465V162.996H386.656V155.26Z" fill="#FAFAFA"/>
<path d="M386.656 168.246H376.465V175.982H386.656V168.246Z" fill="#FAFAFA"/>
<path d="M386.656 181.217H376.465V188.954H386.656V181.217Z" fill="#FAFAFA"/>
<path d="M400.289 90.3745H390.098V98.1112H400.289V90.3745Z" fill="#FAFAFA"/>
<path d="M400.289 103.36H390.098V111.097H400.289V103.36Z" fill="#FAFAFA"/>
<path d="M400.289 116.332H390.098V124.068H400.289V116.332Z" fill="#FAFAFA"/>
<path d="M400.289 129.31H390.098V137.047H400.289V129.31Z" fill="#FAFAFA"/>
<path d="M400.289 142.289H390.098V150.025H400.289V142.289Z" fill="#FAFAFA"/>
<path d="M400.289 155.26H390.098V162.996H400.289V155.26Z" fill="#FAFAFA"/>
<path d="M400.289 168.246H390.098V175.982H400.289V168.246Z" fill="#FAFAFA"/>
<path d="M400.289 181.217H390.098V188.954H400.289V181.217Z" fill="#FAFAFA"/>
<path d="M352.364 206.642V121.955H337.2V206.642H352.364Z" fill="#E0E0E0"/>
<path d="M340.186 125.377H338.349V131.144H340.186V125.377Z" fill="#FAFAFA"/>
<path d="M343.863 125.377H342.025V131.144H343.863V125.377Z" fill="#FAFAFA"/>
<path d="M347.532 125.377H345.694V131.144H347.532V125.377Z" fill="#FAFAFA"/>
<path d="M351.214 125.377H349.376V131.144H351.214V125.377Z" fill="#FAFAFA"/>
<path d="M340.186 135.055H338.349V140.822H340.186V135.055Z" fill="#FAFAFA"/>
<path d="M343.863 135.055H342.025V140.822H343.863V135.055Z" fill="#FAFAFA"/>
<path d="M347.532 135.055H345.694V140.822H347.532V135.055Z" fill="#FAFAFA"/>
<path d="M351.214 135.055H349.376V140.822H351.214V135.055Z" fill="#FAFAFA"/>
<path d="M340.186 144.726H338.349V150.493H340.186V144.726Z" fill="#FAFAFA"/>
<path d="M343.863 144.726H342.025V150.493H343.863V144.726Z" fill="#FAFAFA"/>
<path d="M347.532 144.726H345.694V150.493H347.532V144.726Z" fill="#FAFAFA"/>
<path d="M351.214 144.726H349.376V150.493H351.214V144.726Z" fill="#FAFAFA"/>
<path d="M340.186 154.404H338.349V160.171H340.186V154.404Z" fill="#FAFAFA"/>
<path d="M343.863 154.404H342.025V160.171H343.863V154.404Z" fill="#FAFAFA"/>
<path d="M347.532 154.404H345.694V160.171H347.532V154.404Z" fill="#FAFAFA"/>
<path d="M351.214 154.404H349.376V160.171H351.214V154.404Z" fill="#FAFAFA"/>
<path d="M340.186 164.089H338.349V169.856H340.186V164.089Z" fill="#FAFAFA"/>
<path d="M343.863 164.089H342.025V169.856H343.863V164.089Z" fill="#FAFAFA"/>
<path d="M347.532 164.089H345.694V169.856H347.532V164.089Z" fill="#FAFAFA"/>
<path d="M351.214 164.089H349.376V169.856H351.214V164.089Z" fill="#FAFAFA"/>
<path d="M340.186 173.76H338.349V179.527H340.186V173.76Z" fill="#FAFAFA"/>
<path d="M343.863 173.76H342.025V179.527H343.863V173.76Z" fill="#FAFAFA"/>
<path d="M347.532 173.76H345.694V179.527H347.532V173.76Z" fill="#FAFAFA"/>
<path d="M351.214 173.76H349.376V179.527H351.214V173.76Z" fill="#FAFAFA"/>
<path d="M340.186 183.438H338.349V189.205H340.186V183.438Z" fill="#FAFAFA"/>
<path d="M343.863 183.438H342.025V189.205H343.863V183.438Z" fill="#FAFAFA"/>
<path d="M347.532 183.438H345.694V189.205H347.532V183.438Z" fill="#FAFAFA"/>
<path d="M351.214 183.438H349.376V189.205H351.214V183.438Z" fill="#FAFAFA"/>
<path d="M340.186 193.109H338.349V198.876H340.186V193.109Z" fill="#FAFAFA"/>
<path d="M343.863 193.109H342.025V198.876H343.863V193.109Z" fill="#FAFAFA"/>
<path d="M347.532 193.109H345.694V198.876H347.532V193.109Z" fill="#FAFAFA"/>
<path d="M351.214 193.109H349.376V198.876H351.214V193.109Z" fill="#FAFAFA"/>
<path d="M170.711 140.879H165.794V145.718H170.711V140.879Z" fill="#E6E6E6"/>
<path d="M180.54 140.879H175.623V145.718H180.54V140.879Z" fill="#E6E6E6"/>
<path d="M190.363 140.879H185.445V145.718H190.363V140.879Z" fill="#E6E6E6"/>
<path d="M200.198 140.879H195.28V145.718H200.198V140.879Z" fill="#E6E6E6"/>
<path d="M170.711 148.997H165.794V153.836H170.711V148.997Z" fill="#E6E6E6"/>
<path d="M180.54 148.997H175.623V153.836H180.54V148.997Z" fill="#E6E6E6"/>
<path d="M190.363 148.997H185.445V153.836H190.363V148.997Z" fill="#E6E6E6"/>
<path d="M200.198 148.997H195.28V153.836H200.198V148.997Z" fill="#E6E6E6"/>
<path d="M170.711 157.108H165.794V161.947H170.711V157.108Z" fill="#E6E6E6"/>
<path d="M180.54 157.108H175.623V161.947H180.54V157.108Z" fill="#E6E6E6"/>
<path d="M190.363 157.108H185.445V161.947H190.363V157.108Z" fill="#E6E6E6"/>
<path d="M200.198 157.108H195.28V161.947H200.198V157.108Z" fill="#E6E6E6"/>
<path d="M170.711 165.226H165.794V170.065H170.711V165.226Z" fill="#E6E6E6"/>
<path d="M180.54 165.226H175.623V170.065H180.54V165.226Z" fill="#E6E6E6"/>
<path d="M190.363 165.226H185.445V170.065H190.363V165.226Z" fill="#E6E6E6"/>
<path d="M200.198 165.226H195.28V170.065H200.198V165.226Z" fill="#E6E6E6"/>
<path d="M170.711 173.336H165.794V178.175H170.711V173.336Z" fill="#E6E6E6"/>
<path d="M180.54 173.336H175.623V178.175H180.54V173.336Z" fill="#E6E6E6"/>
<path d="M190.363 173.336H185.445V178.175H190.363V173.336Z" fill="#E6E6E6"/>
<path d="M200.198 173.336H195.28V178.175H200.198V173.336Z" fill="#E6E6E6"/>
<path d="M170.711 181.447H165.794V186.286H170.711V181.447Z" fill="#E6E6E6"/>
<path d="M180.54 181.447H175.623V186.286H180.54V181.447Z" fill="#E6E6E6"/>
<path d="M190.363 181.447H185.445V186.286H190.363V181.447Z" fill="#E6E6E6"/>
<path d="M200.198 181.447H195.28V186.286H200.198V181.447Z" fill="#E6E6E6"/>
<path d="M170.711 189.564H165.794V194.404H170.711V189.564Z" fill="#E6E6E6"/>
<path d="M180.54 189.564H175.623V194.404H180.54V189.564Z" fill="#E6E6E6"/>
<path d="M190.363 189.564H185.445V194.404H190.363V189.564Z" fill="#E6E6E6"/>
<path d="M200.198 189.564H195.28V194.404H200.198V189.564Z" fill="#E6E6E6"/>
<path d="M436.02 262.769H401.765V263.071H436.02V262.769Z" fill="#EBEBEB"/>
<path d="M313.277 266.047H304.284V266.349H313.277V266.047Z" fill="#EBEBEB"/>
<path d="M69.6483 253.565H24.9805V253.867H69.6483V253.565Z" fill="#EBEBEB"/>
<path d="M85.4137 253.565H78.8613V253.867H85.4137V253.565Z" fill="#EBEBEB"/>
<path d="M203.578 258.67H106.7V258.972H203.578V258.67Z" fill="#EBEBEB"/>
</svg>
