<svg width="25" height="25" viewBox="0 0 25 25" fill="none" xmlns="http://www.w3.org/2000/svg">
<path d="M12.7783 24.5C14.4352 24.5 15.7783 23.1569 15.7783 21.5H9.77832C9.77832 23.1569 11.1215 24.5 12.7783 24.5Z" fill="white"/>
<path d="M12.7783 3.37737L11.5825 3.61888C8.84161 4.17243 6.77835 6.59694 6.77835 9.5C6.77835 10.4417 6.57681 12.7959 6.09005 15.1132C5.84842 16.2636 5.52513 17.4614 5.09546 18.5H20.4612C20.0315 17.4614 19.7082 16.2636 19.4666 15.1132C18.9799 12.7959 18.7784 10.4417 18.7784 9.5C18.7784 6.59693 16.7151 4.1724 13.9741 3.61887L12.7783 3.37737ZM22.1073 18.5C22.4422 19.1711 22.8305 19.7015 23.2783 20H2.27832C2.72611 19.7015 3.11449 19.1711 3.44937 18.5C4.79715 15.7991 5.27835 10.8187 5.27835 9.5C5.27835 5.86901 7.85862 2.84067 11.2856 2.14856C11.2808 2.09969 11.2783 2.05013 11.2783 2C11.2783 1.17157 11.9499 0.5 12.7783 0.5C13.6067 0.5 14.2783 1.17157 14.2783 2C14.2783 2.05013 14.2759 2.09968 14.2711 2.14855C17.6981 2.84063 20.2784 5.86899 20.2784 9.5C20.2784 10.8187 20.7595 15.7991 22.1073 18.5Z" fill="white"/>
</svg>
