<svg width="28" height="29" viewBox="0 0 28 29" fill="none" xmlns="http://www.w3.org/2000/svg">
<path d="M14.5917 2.44735C14.3905 2.3639 14.1661 2.3639 13.965 2.44735L3.89394 6.62496L14.2783 10.9326L24.6627 6.62496L14.5917 2.44735ZM26.0908 7.91736L15.1221 12.4674V26.3326L26.0908 21.7826V7.91736ZM13.4346 26.3326V12.4674L2.46582 7.91736V21.7826L13.4346 26.3326ZM13.3382 0.822514C13.9417 0.572183 14.6149 0.572183 15.2184 0.822514L27.2479 5.81254C27.5683 5.94542 27.7783 6.26717 27.7783 6.62496V21.7826C27.7783 22.4981 27.3582 23.1416 26.7175 23.4074L14.5917 28.4374C14.3905 28.5208 14.1661 28.5208 13.965 28.4374L1.8391 23.4074C1.19843 23.1416 0.77832 22.4981 0.77832 21.7826V6.62496C0.77832 6.26717 0.988373 5.94542 1.30871 5.81254L13.3382 0.822514Z" fill="white"/>
</svg>
