<svg width="36" height="29" viewBox="0 0 36 29" fill="none" xmlns="http://www.w3.org/2000/svg">
<path d="M0.77832 3.125C0.77832 2.64175 1.26801 2.25 1.87207 2.25H5.15332C5.65521 2.25 6.09269 2.52326 6.21441 2.91278L7.10104 5.75H32.4971C32.8247 5.75 33.1352 5.86753 33.3429 6.07026C33.5507 6.27299 33.6338 6.53955 33.5696 6.7966L31.3821 15.5466C31.2839 15.9395 30.8646 16.2288 30.3644 16.2489L9.80879 17.0737L10.4361 19.75H29.2158C29.8199 19.75 30.3096 20.1418 30.3096 20.625C30.3096 21.1082 29.8199 21.5 29.2158 21.5H27.0283H11.7158H9.52832C9.00199 21.5 8.5503 21.2001 8.4533 20.7863L5.17807 6.8119L4.29935 4H1.87207C1.26801 4 0.77832 3.60825 0.77832 3.125ZM7.56496 7.5L9.40195 15.3378L29.4041 14.5352L31.1629 7.5H7.56496ZM11.7158 21.5C9.29957 21.5 7.34082 23.067 7.34082 25C7.34082 26.933 9.29957 28.5 11.7158 28.5C14.1321 28.5 16.0908 26.933 16.0908 25C16.0908 23.067 14.1321 21.5 11.7158 21.5ZM27.0283 21.5C24.6121 21.5 22.6533 23.067 22.6533 25C22.6533 26.933 24.6121 28.5 27.0283 28.5C29.4446 28.5 31.4033 26.933 31.4033 25C31.4033 23.067 29.4446 21.5 27.0283 21.5ZM11.7158 23.25C12.9239 23.25 13.9033 24.0335 13.9033 25C13.9033 25.9665 12.9239 26.75 11.7158 26.75C10.5077 26.75 9.52832 25.9665 9.52832 25C9.52832 24.0335 10.5077 23.25 11.7158 23.25ZM27.0283 23.25C28.2364 23.25 29.2158 24.0335 29.2158 25C29.2158 25.9665 28.2364 26.75 27.0283 26.75C25.8202 26.75 24.8408 25.9665 24.8408 25C24.8408 24.0335 25.8202 23.25 27.0283 23.25Z" fill="white"/>
</svg>
