<svg width="78" height="40" viewBox="0 0 78 40" fill="none" xmlns="http://www.w3.org/2000/svg">
<path d="M0.472668 23.0849V30.3111C0.470853 31.0657 0.676651 31.8011 1.05964 32.4084C1.44263 33.0156 1.98249 33.4626 2.59942 33.6833L3.10344 33.8631C3.41352 33.9769 3.73745 34.0303 4.06232 34.0213L7.38767 33.9278C7.03212 32.4792 6.96524 30.9545 7.19218 29.471C7.41911 27.9874 7.93382 26.5845 8.69673 25.37C9.45964 24.1556 10.4504 23.1619 11.593 22.4654C12.7355 21.7688 13.9994 21.3881 15.2874 21.3523C16.5754 21.3165 17.8533 21.6266 19.0228 22.2589C20.1923 22.8911 21.2223 23.8287 22.0337 24.9994C22.845 26.1701 23.4161 27.5429 23.703 29.0122C23.9899 30.4814 23.985 32.0081 23.6886 33.4748L57.526 32.5329C57.4718 32.0707 57.4451 31.6046 57.4461 31.138C57.4211 29.8217 57.6217 28.5128 58.0361 27.2886C58.4506 26.0645 59.0704 24.9498 59.8592 24.0105C60.6479 23.0712 61.5895 22.3262 62.6284 21.8196C63.6673 21.3129 64.7825 21.0549 65.908 21.0606C67.0336 21.0664 68.1467 21.3359 69.1818 21.8531C70.2168 22.3704 71.1528 23.125 71.9345 24.0723C72.7162 25.0197 73.3277 26.1406 73.733 27.369C74.1383 28.5973 74.3291 29.9082 74.2941 31.2243C74.2941 31.4184 74.2941 31.6054 74.2941 31.7923L74.4294 31.7276L75.5849 31.1236C76.1382 30.8224 76.606 30.3419 76.9328 29.7391C77.2597 29.1363 77.4318 28.4364 77.4289 27.7226V13.0113C77.4302 12.3317 77.2721 11.6647 76.9719 11.0828C76.6717 10.5009 76.2409 10.0264 75.7263 9.71094L67.0288 4.36139C66.9311 4.297 66.8552 4.19552 66.8136 4.07377C66.7892 4.00557 66.777 3.93223 66.7778 3.85829C66.7786 3.78435 66.7924 3.71138 66.8184 3.64395C66.8443 3.57651 66.8819 3.51605 66.9286 3.4663C66.9754 3.41654 67.0304 3.37857 67.0902 3.35474L68.1536 2.90895C68.1969 2.89032 68.2351 2.8585 68.2643 2.81677C68.2934 2.77505 68.3125 2.72494 68.3196 2.67167C68.3239 2.63385 68.3217 2.59541 68.3132 2.55859C68.3046 2.52177 68.29 2.4873 68.2699 2.45718C68.2499 2.42707 68.225 2.40192 68.1966 2.38319C68.1681 2.36446 68.1368 2.35254 68.1044 2.3481C63.9739 1.67222 47.9003 -0.786863 39.4487 0.421104C29.7247 1.84478 20.394 11.7386 20.394 11.7386C13.2209 11.4222 6.52714 14.3487 3.64435 15.8083C3.18406 16.0432 2.7711 16.3885 2.43225 16.8221C2.09341 17.2556 1.83624 17.7676 1.67742 18.3249L0.687801 21.7403C0.555416 22.1722 0.482793 22.6261 0.472668 23.0849Z" fill="#407BFF"/>
<path d="M57.5328 32.5329C57.4835 32.0991 57.4589 31.6619 57.459 31.2243C57.459 31.0014 57.459 30.7785 57.459 30.5628L51.3123 27.6292C50.9535 27.4607 50.5673 27.387 50.1814 27.4134L28.8955 29.0528C28.5481 29.0747 28.2087 29.1825 27.8997 29.3692L23.8552 31.8067C23.8277 32.3684 23.7599 32.9265 23.6523 33.4749L57.5328 32.5329Z" fill="#263238"/>
<path d="M77.4528 27.7225V27.3486L73.9922 28.5854C74.1904 29.4459 74.2917 30.333 74.2934 31.2242C74.2934 31.4183 74.2934 31.6053 74.2934 31.7922L74.4286 31.7275L75.5903 31.1235C76.1466 30.8247 76.6177 30.3454 76.9479 29.7425C77.2781 29.1396 77.4533 28.4385 77.4528 27.7225Z" fill="#263238"/>
<path d="M1.45605 32.9066C1.78544 33.2653 2.18076 33.531 2.61163 33.6831L3.11565 33.8629C3.42572 33.9766 3.74966 34.0301 4.07453 34.021L7.39988 33.9276C7.27767 33.4357 7.18928 32.9332 7.13557 32.4248L1.45605 32.9066Z" fill="#263238"/>
<path d="M65.8791 20.439C65.4968 20.4391 65.1149 20.4679 64.7358 20.5252C62.3138 20.8842 60.1124 22.3523 58.6144 24.6074C57.1165 26.8625 56.4442 29.7205 56.7452 32.5546H57.5442C57.49 32.0923 57.4633 31.6262 57.4643 31.1597C57.4392 29.8433 57.6399 28.5345 58.0543 27.3103C58.4688 26.0861 59.0886 24.9715 59.8774 24.0322C60.6661 23.0929 61.6077 22.3479 62.6466 21.8413C63.6855 21.3346 64.8006 21.0766 65.9262 21.0823C67.0517 21.0881 68.1649 21.3576 69.2 21.8748C70.235 22.3921 71.171 23.1467 71.9527 24.094C72.7344 25.0414 73.3459 26.1623 73.7512 27.3907C74.1564 28.619 74.3472 29.9299 74.3123 31.246C74.3123 31.4401 74.3123 31.627 74.3123 31.814L74.4476 31.7493L75.1114 31.3969V31.246C75.1114 28.3855 74.14 25.6422 72.4109 23.6195C70.6818 21.5969 68.3367 20.4605 65.8914 20.4605L65.8791 20.439Z" fill="#263238"/>
<path d="M15.4767 20.439C14.6885 20.4405 13.9037 20.5588 13.141 20.7913C10.7758 21.5146 8.75308 23.307 7.51744 25.7745C6.2818 28.242 5.93445 31.1825 6.55175 33.9495H7.3754C7.01985 32.5009 6.95297 30.9762 7.17991 29.4927C7.40685 28.0091 7.92155 26.6062 8.68446 25.3917C9.44737 24.1772 10.4382 23.1835 11.5807 22.487C12.7232 21.7905 13.9871 21.4097 15.2751 21.374C16.5631 21.3382 17.841 21.6483 19.0105 22.2806C20.18 22.9128 21.21 23.8503 22.0214 25.0211C22.8327 26.1918 23.4038 27.5646 23.6907 29.0339C23.9776 30.5031 23.9727 32.0298 23.6764 33.4965H24.4877C24.623 32.7617 24.691 32.012 24.6906 31.2603C24.6906 28.3999 23.7192 25.6565 21.9901 23.6339C20.261 21.6112 17.9159 20.4749 15.4706 20.4749L15.4767 20.439Z" fill="#263238"/>
<path d="M23.5714 11.5659C23.4742 11.6501 23.4064 11.7728 23.3809 11.9111C23.3549 12.0671 23.3812 12.2289 23.4545 12.3627C23.5277 12.4966 23.6422 12.5924 23.7743 12.6301L27.3086 13.5792C27.6234 13.6594 27.9473 13.6788 28.2675 13.6367L54.2863 9.85466C54.9191 9.76119 55.5051 9.4159 55.9459 8.87678L59.2958 4.72799C59.4085 4.59129 59.4778 4.41374 59.4925 4.22467C59.5019 4.11371 59.4924 4.00168 59.4647 3.895C59.437 3.78831 59.3916 3.68907 59.3311 3.60292C59.2706 3.51678 59.1962 3.44544 59.1121 3.39296C59.028 3.34049 58.9359 3.30792 58.841 3.29712C52.5837 2.57809 44.6729 1.92377 39.7003 2.63561C33.1787 3.59192 26.6878 8.74735 23.5714 11.5659Z" fill="#263238"/>
<g opacity="0.3">
<path d="M40.6784 15.0604C40.6387 15.0436 40.6023 15.0178 40.5712 14.9844C40.5401 14.951 40.515 14.9108 40.4973 14.866C40.4796 14.8212 40.4696 14.7728 40.468 14.7235C40.4664 14.6742 40.4731 14.625 40.4878 14.5787C40.5228 14.4596 40.5881 14.3559 40.6748 14.2814C40.7616 14.2068 40.8658 14.1651 40.9734 14.1617L44.0775 14.0107C44.1176 13.9971 44.1602 13.9971 44.2004 14.0107C44.2806 14.0448 44.3461 14.1144 44.3829 14.2045C44.4197 14.2946 44.4248 14.398 44.3971 14.4924C44.3602 14.6115 44.2936 14.7149 44.206 14.7893C44.1183 14.8637 44.0136 14.9055 43.9054 14.9095L40.8013 15.0604C40.7605 15.0674 40.7191 15.0674 40.6784 15.0604Z" fill="black"/>
</g>
<path d="M63.7528 4.65627C63.623 4.79521 63.5447 4.98781 63.5344 5.19321C63.524 5.3986 63.5825 5.60062 63.6975 5.75638L64.4351 6.69112C64.5204 6.79722 64.6287 6.87426 64.7485 6.91402L73.7657 9.84047C73.9219 9.88997 74.0833 9.91416 74.2451 9.91238H76.0338C75.9405 9.83949 75.8441 9.77228 75.7449 9.71104L67.0474 4.35428C66.9921 4.32473 66.9428 4.28201 66.9025 4.22886C66.8621 4.1757 66.8318 4.11329 66.8132 4.04561C66.7947 3.97793 66.7885 3.90646 66.7949 3.8358C66.8014 3.76514 66.8204 3.69684 66.8507 3.63525L64.0232 4.46214C63.9212 4.50084 63.8285 4.56738 63.7528 4.65627Z" fill="#263238"/>
<path d="M20.3945 11.7387L20.8863 11.9041C21.0741 11.963 21.2712 11.969 21.4614 11.9215C21.6516 11.874 21.8295 11.7744 21.9804 11.6308C24.8324 8.80506 29.7866 4.44056 35.1342 2.46323C35.1465 2.45906 35.1579 2.45173 35.1675 2.44178C35.177 2.43183 35.1846 2.4195 35.1896 2.40571C35.1961 2.39252 35.2004 2.37793 35.2021 2.3628C35.2038 2.34767 35.2029 2.33229 35.1994 2.31757C35.196 2.30285 35.1901 2.28908 35.1821 2.27705C35.174 2.26503 35.1641 2.25499 35.1527 2.24752L34.4888 1.85205C26.7625 4.97263 20.3945 11.7387 20.3945 11.7387Z" fill="#263238"/>
<path d="M65.8857 39.4358C69.7625 39.4358 72.9052 35.7595 72.9052 31.2245C72.9052 26.6895 69.7625 23.0132 65.8857 23.0132C62.0089 23.0132 58.8662 26.6895 58.8662 31.2245C58.8662 35.7595 62.0089 39.4358 65.8857 39.4358Z" fill="#263238"/>
<path opacity="0.4" d="M65.8847 36.2573C68.261 36.2573 70.1874 34.0039 70.1874 31.2241C70.1874 28.4444 68.261 26.1909 65.8847 26.1909C63.5084 26.1909 61.582 28.4444 61.582 31.2241C61.582 34.0039 63.5084 36.2573 65.8847 36.2573Z" fill="white"/>
<g opacity="0.3">
<path d="M66.2294 27.097C66.2294 26.8746 66.0753 26.6943 65.8852 26.6943C65.6951 26.6943 65.541 26.8746 65.541 27.097V29.6783C65.541 29.9007 65.6951 30.081 65.8852 30.081C66.0753 30.081 66.2294 29.9007 66.2294 29.6783V27.097Z" fill="white"/>
</g>
<g opacity="0.3">
<path d="M66.2294 32.7703C66.2294 32.5479 66.0753 32.3677 65.8852 32.3677C65.6951 32.3677 65.541 32.5479 65.541 32.7703V35.3516C65.541 35.574 65.6951 35.7543 65.8852 35.7543C66.0753 35.7543 66.2294 35.574 66.2294 35.3516V32.7703Z" fill="white"/>
</g>
<g opacity="0.3">
<path d="M67.2009 30.7999C67.1208 30.8522 67.0264 30.8657 66.9379 30.8375C66.8494 30.8093 66.7739 30.7415 66.7276 30.6489C66.6832 30.5563 66.6719 30.447 66.696 30.3446C66.7202 30.2423 66.778 30.1552 66.8567 30.1025L68.7683 28.801C68.8475 28.7491 68.941 28.7358 69.0285 28.7641C69.116 28.7923 69.1904 28.8599 69.2355 28.952C69.2586 28.9972 69.2737 29.0473 69.28 29.0994C69.2863 29.1515 69.2836 29.2046 69.2722 29.2555C69.2607 29.3064 69.2407 29.3541 69.2133 29.3958C69.1859 29.4375 69.1516 29.4724 69.1125 29.4985L67.2009 30.7999Z" fill="white"/>
</g>
<g opacity="0.3">
<path d="M63.0037 33.6256C62.9236 33.6779 62.8291 33.6914 62.7406 33.6632C62.6522 33.6349 62.5767 33.5673 62.5304 33.4746C62.4859 33.382 62.4746 33.2726 62.4988 33.1703C62.5229 33.068 62.5807 32.9809 62.6594 32.9282L64.5649 31.6267C64.645 31.5744 64.7394 31.5609 64.8279 31.5892C64.9164 31.6174 64.9919 31.6851 65.0382 31.7777C65.0819 31.8709 65.0935 31.9802 65.0707 32.0831C65.0478 32.186 64.9922 32.2748 64.9153 32.3314L63.0037 33.6256Z" fill="white"/>
</g>
<g opacity="0.3">
<path d="M68.7688 33.6331L66.8571 32.3388C66.7779 32.2847 66.7201 32.1964 66.6959 32.0929C66.6718 31.9893 66.6833 31.8789 66.7281 31.7852C66.7509 31.7392 66.7813 31.699 66.8175 31.6668C66.8538 31.6347 66.8951 31.6113 66.9391 31.5979C66.9831 31.5845 67.0289 31.5815 67.0739 31.5889C67.1189 31.5964 67.1623 31.6142 67.2013 31.6414L69.113 32.9357C69.1911 32.991 69.2477 33.0798 69.2707 33.1832C69.2936 33.2867 69.2812 33.3965 69.2359 33.4893C69.2136 33.535 69.1838 33.5751 69.1481 33.6072C69.1125 33.6392 69.0717 33.6627 69.0282 33.6761C68.9847 33.6894 68.9393 33.6925 68.8948 33.6852C68.8502 33.6778 68.8074 33.6601 68.7688 33.6331Z" fill="white"/>
</g>
<g opacity="0.3">
<path d="M65.0382 30.6489C64.9919 30.7416 64.9164 30.8093 64.8279 30.8375C64.7394 30.8657 64.645 30.8523 64.5649 30.7999L62.6594 29.4985C62.5807 29.4457 62.5229 29.3587 62.4988 29.2563C62.4746 29.154 62.4859 29.0446 62.5304 28.952C62.5767 28.8594 62.6522 28.7917 62.7406 28.7635C62.8291 28.7352 62.9236 28.7487 63.0037 28.801L64.9153 30.1025C64.993 30.1565 65.0494 30.244 65.0724 30.3463C65.0954 30.4485 65.0832 30.5572 65.0382 30.6489Z" fill="white"/>
</g>
<path d="M65.3076 31.217C65.3092 31.039 65.3708 30.8689 65.479 30.7437C65.5872 30.6185 65.7332 30.5483 65.8854 30.5483C65.9997 30.5483 66.1114 30.588 66.2064 30.6622C66.3014 30.7365 66.3755 30.8421 66.4192 30.9656C66.4629 31.0891 66.4744 31.225 66.4521 31.3561C66.4298 31.4872 66.3748 31.6076 66.294 31.7021C66.2132 31.7967 66.1102 31.861 65.9981 31.8871C65.886 31.9132 65.7699 31.8998 65.6643 31.8487C65.5587 31.7975 65.4685 31.7109 65.405 31.5997C65.3415 31.4886 65.3076 31.3579 65.3076 31.2242V31.217Z" fill="#263238"/>
<path d="M15.4951 39.4358C19.3718 39.4358 22.5146 35.7595 22.5146 31.2245C22.5146 26.6895 19.3718 23.0132 15.4951 23.0132C11.6183 23.0132 8.47559 26.6895 8.47559 31.2245C8.47559 35.7595 11.6183 39.4358 15.4951 39.4358Z" fill="#263238"/>
<path opacity="0.4" d="M15.495 36.2573C17.8713 36.2573 19.7977 34.0039 19.7977 31.2241C19.7977 28.4444 17.8713 26.1909 15.495 26.1909C13.1188 26.1909 11.1924 28.4444 11.1924 31.2241C11.1924 34.0039 13.1188 36.2573 15.495 36.2573Z" fill="white"/>
<g opacity="0.3">
<path d="M15.8398 27.097C15.8398 26.8746 15.6857 26.6943 15.4956 26.6943C15.3055 26.6943 15.1514 26.8746 15.1514 27.097V29.6783C15.1514 29.9007 15.3055 30.081 15.4956 30.081C15.6857 30.081 15.8398 29.9007 15.8398 29.6783V27.097Z" fill="white"/>
</g>
<g opacity="0.3">
<path d="M15.8398 32.7703C15.8398 32.5479 15.6857 32.3677 15.4956 32.3677C15.3055 32.3677 15.1514 32.5479 15.1514 32.7703V35.3516C15.1514 35.574 15.3055 35.7543 15.4956 35.7543C15.6857 35.7543 15.8398 35.574 15.8398 35.3516V32.7703Z" fill="white"/>
</g>
<g opacity="0.3">
<path d="M16.8106 30.7999C16.7314 30.8519 16.6379 30.8652 16.5504 30.8369C16.4629 30.8086 16.3885 30.7411 16.3434 30.6489C16.2985 30.5572 16.2862 30.4485 16.3092 30.3462C16.3322 30.244 16.3886 30.1564 16.4664 30.1025L18.378 28.801C18.4571 28.7491 18.5506 28.7358 18.6381 28.7641C18.7256 28.7923 18.8 28.8599 18.8451 28.952C18.8895 29.0446 18.9009 29.154 18.8767 29.2563C18.8525 29.3587 18.7948 29.4457 18.716 29.4985L16.8106 30.7999Z" fill="white"/>
</g>
<g opacity="0.3">
<path d="M12.1445 33.4746C12.1215 33.4294 12.1063 33.3793 12.1 33.3272C12.0937 33.2751 12.0964 33.222 12.1078 33.1712C12.1193 33.1203 12.1393 33.0726 12.1667 33.0308C12.1941 32.9891 12.2284 32.9542 12.2675 32.9282L14.1791 31.6267C14.2592 31.5744 14.3536 31.5609 14.4421 31.5892C14.5306 31.6174 14.6061 31.6851 14.6524 31.7777C14.6971 31.8714 14.7086 31.9819 14.6845 32.0854C14.6603 32.1889 14.6025 32.2772 14.5233 32.3314L12.6178 33.6256C12.5377 33.6779 12.4433 33.6914 12.3548 33.6632C12.2663 33.6349 12.1908 33.5673 12.1445 33.4746Z" fill="white"/>
</g>
<g opacity="0.3">
<path d="M18.8516 33.4893C18.8287 33.5353 18.7983 33.5755 18.7621 33.6076C18.7259 33.6398 18.6845 33.6632 18.6405 33.6766C18.5965 33.69 18.5507 33.693 18.5057 33.6856C18.4607 33.6781 18.4174 33.6603 18.3783 33.6331L16.4667 32.3388C16.3897 32.2823 16.3341 32.1935 16.3113 32.0906C16.2884 31.9877 16.3 31.8784 16.3437 31.7852C16.3666 31.7392 16.397 31.699 16.4332 31.6668C16.4694 31.6347 16.5107 31.6113 16.5547 31.5979C16.5988 31.5845 16.6446 31.5815 16.6896 31.5889C16.7346 31.5964 16.7779 31.6142 16.817 31.6414L18.7225 32.9357C18.8017 32.9898 18.8595 33.0781 18.8837 33.1816C18.9078 33.2852 18.8963 33.3956 18.8516 33.4893Z" fill="white"/>
</g>
<g opacity="0.3">
<path d="M14.6462 30.6561C14.6001 30.747 14.5252 30.8131 14.4378 30.84C14.3504 30.8669 14.2575 30.8525 14.1791 30.7999L12.2675 29.4985C12.2284 29.4725 12.1941 29.4375 12.1667 29.3958C12.1393 29.3541 12.1193 29.3064 12.1078 29.2555C12.0964 29.2046 12.0937 29.1515 12.1 29.0994C12.1063 29.0473 12.1215 28.9972 12.1445 28.952C12.1908 28.8594 12.2663 28.7917 12.3548 28.7635C12.4433 28.7352 12.5377 28.7487 12.6178 28.801L14.5233 30.1025C14.602 30.1553 14.6598 30.2423 14.684 30.3446C14.7081 30.447 14.6968 30.5563 14.6524 30.6489L14.6462 30.6561Z" fill="white"/>
</g>
<path d="M15.477 30.5483C15.5894 30.5567 15.6973 30.6033 15.7873 30.6825C15.8774 30.7617 15.9456 30.87 15.9838 30.994C16.0219 31.118 16.0282 31.2523 16.0019 31.3805C15.9756 31.5086 15.9179 31.625 15.8358 31.7152C15.7537 31.8055 15.6509 31.8657 15.5399 31.8885C15.429 31.9113 15.3147 31.8956 15.2113 31.8434C15.1079 31.7912 15.0197 31.7048 14.9577 31.5948C14.8957 31.4847 14.8625 31.3559 14.8623 31.2241C14.8621 31.1316 14.8782 31.0401 14.9095 30.9551C14.9408 30.8702 14.9867 30.7937 15.0444 30.7303C15.102 30.6669 15.1701 30.6181 15.2445 30.5868C15.3189 30.5555 15.3981 30.5423 15.477 30.5483Z" fill="#263238"/>
<path opacity="0.3" d="M76.7162 15.7364C76.8282 15.6936 76.9212 15.6009 76.9752 15.4785C77.0293 15.3561 77.04 15.2137 77.0051 15.0821C76.9252 13.3565 76.6117 11.8177 75.7082 10.768C75.68 10.6535 75.6184 10.5543 75.5342 10.4873C75.4501 10.4203 75.3485 10.3899 75.2472 10.4013L69.8996 10.9909C69.806 11.0021 69.7179 11.0473 69.6476 11.1203C69.5679 11.2168 69.5234 11.3457 69.5234 11.4798C69.5234 11.6139 69.5679 11.7428 69.6476 11.8393L71.1781 13.7735C71.2333 13.8385 71.3006 13.8877 71.3748 13.9173L76.4949 15.7293C76.567 15.7535 76.6431 15.756 76.7162 15.7364Z" fill="black"/>
<path d="M23.3821 11.9114C23.3528 12.0678 23.3778 12.2313 23.4516 12.3662C23.5253 12.501 23.6418 12.596 23.7754 12.6305L27.3098 13.5796C27.6237 13.6669 27.9487 13.6864 28.2687 13.6371L29.2152 13.5005L30.3462 6.39648C27.9765 7.89464 25.7153 9.61642 23.5849 11.5447C23.4801 11.6326 23.4076 11.7636 23.3821 11.9114Z" fill="black"/>
<path d="M46.1358 2.39111L44.0459 11.3933L47.0024 10.9691L48.1396 2.39111H46.1358Z" fill="black"/>
<path d="M59.4991 4.23908C59.5163 4.01539 59.4576 3.79274 59.3357 3.61921C59.2138 3.44567 59.0385 3.33517 58.8476 3.31153C58.0116 3.21087 57.1265 3.1174 56.2352 3.02393L55.9033 8.94871L55.9463 8.89838L59.2963 4.74959C59.4096 4.60981 59.4808 4.43056 59.4991 4.23908Z" fill="black"/>
<path d="M29.1093 12.2274C28.942 12.2283 28.7762 12.1905 28.6214 12.116C28.4667 12.0415 28.3261 11.9319 28.2078 11.7935C28.0895 11.6551 27.9958 11.4907 27.9321 11.3097C27.8685 11.1287 27.8361 10.9347 27.8369 10.739C27.8398 10.403 27.9397 10.078 28.1205 9.8169C28.3013 9.5558 28.5523 9.37394 28.8327 9.30091L30.5353 8.8623L30.9348 12.1914L29.14 12.2417L29.1093 12.2274Z" fill="#407BFF"/>
<path opacity="0.3" d="M30.438 12.1916L30.9359 12.1772L30.5364 8.84814L30.0508 8.97038L30.438 12.1916Z" fill="black"/>
</svg>
