<svg width="31" height="25" viewBox="0 0 31 25" fill="none" xmlns="http://www.w3.org/2000/svg">
<g clip-path="url(#clip0_1985_2275)">
<path d="M17.12 0.0720066C15.3275 -0.301431 13.6625 0.828256 13.5425 2.29076C13.4075 3.93294 13.1112 5.44076 12.74 6.33763C12.5056 6.90013 11.8419 7.92044 10.79 8.89857C9.74562 9.87201 8.38625 10.7392 6.79437 11.1017C5.53438 11.3876 4.25 12.297 4.25 13.6251V19.8767C4.25 21.197 5.52875 22.1642 6.965 22.2908C8.97125 22.4689 9.8975 22.9392 10.8425 23.4204L10.9325 23.4673C11.4425 23.7251 12.0162 24.0111 12.7512 24.2236C13.4956 24.4361 14.3656 24.5626 15.5 24.5626H22.0625C23.8194 24.5626 25.0606 23.8173 25.6887 22.9001C25.9923 22.4673 26.1564 21.9764 26.165 21.4751C26.165 21.2376 26.1219 20.9876 26.0206 20.7501C26.3975 20.3392 26.7331 19.847 26.9356 19.3423C27.1419 18.8267 27.2581 18.1517 26.9431 17.547C27.0725 17.3439 27.1681 17.1267 27.2412 16.9173C27.3856 16.4954 27.4531 16.0298 27.4531 15.5783C27.4531 15.1283 27.3856 14.6642 27.2412 14.2408C27.1757 14.0461 27.0891 13.8568 26.9825 13.6751C27.3108 13.2859 27.522 12.8366 27.5984 12.365C27.6748 11.8935 27.614 11.4136 27.4212 10.9658C27.035 10.0408 26.1425 9.24701 25.1712 8.97826C23.5831 8.53763 21.7906 8.54701 20.4537 8.64857C20.1762 8.66938 19.8993 8.69543 19.6231 8.72669C20.2736 6.40542 20.2337 3.98687 19.5069 1.68138C19.3804 1.31199 19.1379 0.977452 18.8043 0.712365C18.4707 0.447279 18.0582 0.261268 17.6094 0.173569L17.12 0.0720066ZM22.0625 23.0017H15.5C14.5437 23.0017 13.8819 22.8939 13.3625 22.7454C12.8356 22.5939 12.4137 22.3892 11.9075 22.1314L11.8325 22.0939C10.7919 21.5642 9.58625 20.9517 7.16375 20.7376C6.53937 20.6814 6.125 20.2845 6.125 19.8783V13.6251C6.125 13.2283 6.54875 12.7767 7.2875 12.6095C9.34062 12.1408 10.9944 11.0533 12.1887 9.94076C13.3794 8.83138 14.1837 7.63607 14.51 6.85013C14.9656 5.75638 15.2731 4.08763 15.4137 2.39701C15.4606 1.83138 16.0887 1.46888 16.6644 1.58763L17.1556 1.69076C17.4556 1.75326 17.6394 1.91419 17.6956 2.08919C18.4613 4.52048 18.3669 7.08443 17.4237 9.47201C17.3704 9.6048 17.3608 9.74711 17.396 9.88404C17.4313 10.021 17.5101 10.1475 17.6241 10.2504C17.7381 10.3532 17.8833 10.4286 18.0443 10.4687C18.2053 10.5088 18.3763 10.5121 18.5394 10.4783L18.545 10.4767L18.5712 10.472L18.68 10.4501C19.3212 10.3367 19.9698 10.2548 20.6225 10.2048C21.8656 10.1111 23.3544 10.1204 24.5787 10.4611C24.9069 10.5517 25.4225 10.9298 25.6475 11.4767C25.8481 11.9579 25.8106 12.5236 25.1487 13.0736L24.4869 13.6251L25.1487 14.1783C25.2294 14.2454 25.3456 14.3986 25.4375 14.6704C25.5275 14.9314 25.5781 15.2486 25.5781 15.5783C25.5781 15.9095 25.5275 16.2251 25.4375 16.4876C25.3437 16.7595 25.2294 16.9126 25.1487 16.9798L24.4869 17.5314L25.1487 18.0845C25.2369 18.1579 25.3531 18.3611 25.1581 18.847C24.9549 19.3182 24.6319 19.7473 24.2112 20.1048L23.5494 20.6564L24.2112 21.2095C24.2225 21.2173 24.2881 21.2876 24.2881 21.4751C24.2798 21.7043 24.2017 21.928 24.0612 22.1251C23.7519 22.5751 23.1181 23.0001 22.0625 23.0001V23.0017Z" fill="#003F62"/>
</g>
<defs>
<clipPath id="clip0_1985_2275">
<rect width="30" height="25" fill="white" transform="translate(0.5)"/>
</clipPath>
</defs>
</svg>
