<svg width="25" height="25" viewBox="0 0 25 25" fill="none" xmlns="http://www.w3.org/2000/svg">
<path d="M16.2637 14.5273H15.4737L15.1937 14.2573C16.1737 13.1173 16.7637 11.6373 16.7637 10.0273C16.7637 6.43734 13.8537 3.52734 10.2637 3.52734C6.67367 3.52734 3.76367 6.43734 3.76367 10.0273C3.76367 13.6173 6.67367 16.5273 10.2637 16.5273C11.8737 16.5273 13.3537 15.9373 14.4937 14.9573L14.7637 15.2373V16.0273L19.7637 21.0173L21.2537 19.5273L16.2637 14.5273ZM10.2637 14.5273C7.77367 14.5273 5.76367 12.5173 5.76367 10.0273C5.76367 7.53734 7.77367 5.52734 10.2637 5.52734C12.7537 5.52734 14.7637 7.53734 14.7637 10.0273C14.7637 12.5173 12.7537 14.5273 10.2637 14.5273Z" fill="#4F5559"/>
</svg>
