<svg width="36" height="36" viewBox="0 0 36 36" fill="none" xmlns="http://www.w3.org/2000/svg">
<path d="M0 17.46C0 7.42752 7.86006 0 18 0C28.1399 0 36 7.42752 36 17.46C36 27.4925 28.1399 34.92 18 34.92C16.1787 34.92 14.4313 34.6795 12.7895 34.2281C12.4704 34.1402 12.131 34.1651 11.8282 34.2986L8.25541 35.8758C7.32085 36.2884 6.26591 35.6238 6.23459 34.6025L6.13656 31.4006C6.1245 31.0061 5.94702 30.6374 5.65301 30.3743C2.15064 27.2422 0 22.7076 0 17.46ZM12.4786 14.1775L7.19109 22.5662C6.68367 23.3712 7.67323 24.2784 8.43129 23.7032L14.1109 19.3927C14.4951 19.1011 15.0261 19.0996 15.4119 19.389L19.6174 22.5431C20.8793 23.4896 22.6804 23.1573 23.5215 21.8228L28.809 13.434C29.3163 12.6289 28.3268 11.7217 27.5687 12.297L21.8891 16.6075C21.5049 16.8991 20.974 16.9006 20.5881 16.6112L16.3827 13.4571C15.1207 12.5107 13.3197 12.843 12.4786 14.1775Z" fill="#168AFF"/>
</svg>
