<svg width="31" height="35" viewBox="0 0 31 35" fill="none" xmlns="http://www.w3.org/2000/svg">
<path d="M27.1109 18.839C27.7434 10.4489 22.4418 3.04757 15.2695 2.30763C8.09716 1.56769 1.77005 7.76936 1.13751 16.1595C0.504966 24.5496 5.80651 31.9509 12.9789 32.6909C20.1512 33.4308 26.4783 27.2291 27.1109 18.839Z" fill="#407BFF"/>
<path d="M19.2532 27.8545L18.3496 31.6366L22.0868 33.9662L22.5416 29.12L19.2532 27.8545Z" fill="#407BFF"/>
<path d="M30.0222 16.9612C29.982 16.9557 29.945 16.9327 29.9188 16.8967C29.8926 16.8606 29.879 16.8143 29.8808 16.767C29.9707 14.3139 29.5434 11.8726 28.6366 9.65823C27.7298 7.44385 26.3712 5.52438 24.6807 4.06898C24.6641 4.05536 24.65 4.03802 24.6391 4.01797C24.6282 3.99791 24.6209 3.97555 24.6174 3.95215C24.614 3.92875 24.6146 3.90479 24.6191 3.88165C24.6236 3.85851 24.632 3.83664 24.6438 3.81732C24.6555 3.79788 24.6703 3.78133 24.6874 3.76863C24.7046 3.75592 24.7237 3.74732 24.7437 3.74331C24.7637 3.7393 24.7842 3.73996 24.804 3.74526C24.8238 3.75056 24.8425 3.76039 24.859 3.77418C26.5915 5.26595 27.9837 7.23328 28.913 9.50282C29.8424 11.7724 30.2802 14.2744 30.1881 16.7886C30.1874 16.8128 30.1824 16.8367 30.1736 16.8586C30.1647 16.8806 30.1522 16.9002 30.1367 16.9163C30.1211 16.9325 30.103 16.9447 30.0833 16.9524C30.0637 16.9602 30.0429 16.9631 30.0222 16.9612Z" fill="#407BFF"/>
<path d="M29.4571 21.4405H29.4018C29.3826 21.4318 29.3652 21.4187 29.3504 21.402C29.3357 21.3852 29.3239 21.3652 29.3159 21.3431C29.3079 21.321 29.3037 21.2972 29.3037 21.2732C29.3037 21.2491 29.3078 21.2254 29.3157 21.2032C29.5577 20.5201 29.6749 19.7853 29.6599 19.0461C29.6599 18.9984 29.6761 18.9527 29.7049 18.919C29.7338 18.8853 29.7729 18.8664 29.8136 18.8664C29.8335 18.8654 29.8533 18.8691 29.872 18.8774C29.8906 18.8856 29.9076 18.8982 29.9219 18.9143C29.9363 18.9304 29.9477 18.9498 29.9555 18.9712C29.9633 18.9926 29.9673 19.0157 29.9673 19.0389C29.9818 19.8228 29.8562 20.6016 29.5985 21.3254C29.5874 21.3589 29.5681 21.3878 29.5429 21.4083C29.5177 21.4288 29.4878 21.44 29.4571 21.4405Z" fill="#407BFF"/>
<path d="M13.8938 23.936L7.3291 18.8021L8.85963 16.1201L13.2607 19.5643L18.7373 11.0869L20.9378 13.0283L13.8938 23.936Z" fill="white"/>
</svg>
