<svg width="79" height="18" viewBox="0 0 79 18" fill="none" xmlns="http://www.w3.org/2000/svg">
<path d="M3.0748 16.9079C2.74583 17.1189 2.37333 16.7501 2.43956 16.2789L3.1459 11.2538L0.147368 7.68741C-0.132862 7.35411 0.0121989 6.7447 0.38761 6.67814L4.55765 5.93878L6.41698 1.34182C6.58447 0.927725 7.03818 0.927725 7.20567 1.34182L9.06499 5.93878L13.235 6.67814C13.6104 6.7447 13.7555 7.35411 13.4753 7.68741L10.4767 11.2538L11.1831 16.2789C11.2493 16.7501 10.8768 17.1189 10.5478 16.9079L6.81132 14.5109L3.0748 16.9079Z" fill="#EDF042"/>
<path d="M19.4195 16.9079C19.0906 17.1189 18.7181 16.7501 18.7843 16.2789L19.4906 11.2538L16.4921 7.68741C16.2119 7.35411 16.3569 6.7447 16.7323 6.67814L20.9024 5.93878L22.7617 1.34182C22.9292 0.927725 23.3829 0.927725 23.5504 1.34182L25.4097 5.93878L29.5798 6.67814C29.9552 6.7447 30.1002 7.35411 29.82 7.68741L26.8215 11.2538L27.5278 16.2789C27.594 16.7501 27.2215 17.1189 26.8926 16.9079L23.156 14.5109L19.4195 16.9079Z" fill="#EDF042"/>
<path d="M35.7643 16.9079C35.4353 17.1189 35.0628 16.7501 35.129 16.2789L35.8354 11.2538L32.8368 7.68741C32.5566 7.35411 32.7017 6.7447 33.0771 6.67814L37.2471 5.93878L39.1064 1.34182C39.2739 0.927725 39.7276 0.927725 39.8951 1.34182L41.7544 5.93878L45.9245 6.67814C46.2999 6.7447 46.445 7.35411 46.1647 7.68741L43.1662 11.2538L43.8725 16.2789C43.9388 16.7501 43.5663 17.1189 43.2373 16.9079L39.5008 14.5109L35.7643 16.9079Z" fill="#EDF042"/>
<path d="M52.109 16.9079C51.78 17.1189 51.4075 16.7501 51.4737 16.2789L52.1801 11.2538L49.1815 7.68741C48.9013 7.35411 49.0464 6.7447 49.4218 6.67814L53.5918 5.93878L55.4512 1.34182C55.6186 0.927725 56.0724 0.927725 56.2398 1.34182L58.0992 5.93878L62.2692 6.67814C62.6446 6.7447 62.7897 7.35411 62.5095 7.68741L59.5109 11.2538L60.2173 16.2789C60.2835 16.7501 59.911 17.1189 59.582 16.9079L55.8455 14.5109L52.109 16.9079Z" fill="#EDF042"/>
<path d="M68.4537 16.9079C68.1247 17.1189 67.7522 16.7501 67.8185 16.2789L68.5248 11.2538L65.5263 7.68741C65.246 7.35411 65.3911 6.7447 65.7665 6.67814L69.9366 5.93878L71.7959 1.34182C71.9634 0.927725 72.4171 0.927725 72.5846 1.34182L74.4439 5.93878L78.6139 6.67814C78.9893 6.7447 79.1344 7.35411 78.8542 7.68741L75.8556 11.2538L76.562 16.2789C76.6282 16.7501 76.2557 17.1189 75.9267 16.9079L72.1902 14.5109L68.4537 16.9079Z" fill="#EDF042"/>
</svg>
