<svg width="6" height="18" viewBox="0 0 6 18" fill="none" xmlns="http://www.w3.org/2000/svg">
<path opacity="0.6" d="M4.94769 17.4627C4.93502 17.4629 4.92253 17.459 4.91166 17.4514C4.90079 17.4438 4.89198 17.4327 4.88622 17.4195C4.88622 17.4195 2.47058 13.242 1.64693 11.5019C0.823272 9.76188 0.325392 0.587088 0.306952 0.198813C0.305158 0.175121 0.311155 0.151523 0.323717 0.13282C0.33628 0.114117 0.354463 0.101716 0.374566 0.0981498C0.39541 0.0978999 0.415623 0.106506 0.43145 0.122375C0.447277 0.138244 0.457642 0.160295 0.460619 0.18443C0.460619 0.277903 0.946207 9.66121 1.78215 11.4156C2.6181 13.1701 4.99071 17.2829 5.00915 17.3189C5.02343 17.3363 5.0314 17.3595 5.0314 17.3836C5.0314 17.4077 5.02343 17.4309 5.00915 17.4483L4.94769 17.4627Z" fill="black"/>
</svg>
