<svg width="4" height="4" viewBox="0 0 4 4" fill="none" xmlns="http://www.w3.org/2000/svg">
<path d="M3.60986 2.03056C3.61474 2.41285 3.52229 2.78821 3.34427 3.10886C3.16625 3.42952 2.91072 3.68097 2.61017 3.83124C2.30963 3.98151 1.97767 4.0238 1.65652 3.95273C1.33537 3.88165 1.03955 3.70043 0.806704 3.43212C0.573858 3.1638 0.41451 2.82052 0.34893 2.44596C0.28335 2.0714 0.314504 1.68248 0.43843 1.32869C0.562355 0.974898 0.773447 0.672227 1.04485 0.459187C1.31626 0.246147 1.63571 0.132367 1.96255 0.132324C2.39522 0.132268 2.81053 0.331337 3.11877 0.686522C3.427 1.04171 3.6034 1.52449 3.60986 2.03056Z" fill="white"/>
</svg>
