<svg width="3" height="18" viewBox="0 0 3 18" fill="none" xmlns="http://www.w3.org/2000/svg">
<path opacity="0.6" d="M0.648673 17.9311C0.628495 17.9259 0.610818 17.9118 0.599358 17.8917C0.587898 17.8716 0.583541 17.8471 0.587203 17.8233C0.587203 17.7226 2.4312 7.54836 2.70166 6.16063C2.97211 4.77291 2.70166 0.408408 2.70166 0.408408C2.7016 0.384814 2.70916 0.362066 2.72284 0.344729C2.73653 0.327392 2.7553 0.316756 2.77541 0.314941C2.81844 0.314941 2.85532 0.350889 2.85532 0.401221C2.85532 0.580978 3.09504 4.81605 2.85532 6.21097C2.6156 7.60588 0.765453 17.7729 0.747013 17.8808C0.738888 17.902 0.724317 17.9188 0.706139 17.9282C0.68796 17.9375 0.667482 17.9385 0.648673 17.9311Z" fill="black"/>
</svg>
