<svg width="95" height="60" viewBox="0 0 95 60" fill="none" xmlns="http://www.w3.org/2000/svg">
<path d="M89.4753 0.389794H68.8901L67.249 4.17907H27.1727L24.7878 0.389794H5.84375C5.1249 0.38411 4.41217 0.544589 3.74649 0.862018C3.08081 1.17945 2.47528 1.64758 1.96469 2.23952C1.45409 2.83146 1.04848 3.53556 0.771153 4.31138C0.493823 5.0872 0.350235 5.91947 0.348633 6.76038V59.0265H94.9581V6.76038C94.9565 5.92068 94.8133 5.0896 94.5368 4.31472C94.2602 3.53984 93.8557 2.83639 93.3464 2.24464C92.8371 1.65288 92.2331 1.18445 91.5688 0.866171C90.9045 0.547891 90.1931 0.38601 89.4753 0.389794Z" fill="#407BFF"/>
</svg>
