<svg width="3" height="2" viewBox="0 0 3 2" fill="none" xmlns="http://www.w3.org/2000/svg">
<path d="M2.04379 1.03039C2.04379 1.22095 1.99549 1.40723 1.90498 1.56568C1.81448 1.72412 1.68584 1.84762 1.53533 1.92054C1.38483 1.99347 1.21922 2.01255 1.05945 1.97538C0.899676 1.9382 0.752909 1.84643 0.637719 1.71169C0.522529 1.57694 0.444093 1.40526 0.412312 1.21836C0.380531 1.03146 0.396839 0.837732 0.459179 0.661676C0.521519 0.48562 0.627087 0.335143 0.762536 0.229273C0.897985 0.123402 1.05723 0.0668945 1.22013 0.0668945C1.43858 0.0668945 1.64808 0.168402 1.80254 0.349092C1.95701 0.529783 2.04379 0.774854 2.04379 1.03039Z" fill="white"/>
</svg>
