<svg width="11" height="15" viewBox="0 0 11 15" fill="none" xmlns="http://www.w3.org/2000/svg">
<path d="M2.0285 2.47921C2.96851 1.46171 4.20883 0.909557 5.48928 0.93859C6.76974 0.967622 7.99085 1.57559 8.89644 2.63494C9.80203 3.69428 10.3217 5.12271 10.3466 6.62057C10.3714 8.11844 9.89937 9.56934 9.02956 10.6689L6.23282 13.9405C6.04611 14.1587 5.79297 14.2813 5.52903 14.2813C5.26509 14.2813 5.01195 14.1587 4.82524 13.9405L2.0285 10.6689C1.10102 9.58236 0.580078 8.1096 0.580078 6.57408C0.580078 5.03856 1.10102 3.5658 2.0285 2.47921ZM5.5321 9.26683C5.98755 9.26682 6.43274 9.10854 6.81117 8.81209C7.1896 8.51563 7.48423 8.09437 7.65767 7.60173C7.83111 7.10909 7.87555 6.56728 7.78534 6.04505C7.69514 5.52283 7.47435 5.04372 7.151 4.6685C6.82765 4.29329 6.41632 4.0389 5.96917 3.93758C5.52203 3.83627 5.05924 3.89261 4.63952 4.09946C4.21979 4.3063 3.86205 4.65434 3.61168 5.0994C3.36131 5.54446 3.22959 6.06648 3.23325 6.59925C3.23325 6.95205 3.29275 7.30139 3.40836 7.62725C3.52396 7.95311 3.69339 8.2491 3.90694 8.49824C4.12049 8.74737 4.37396 8.94477 4.65284 9.07913C4.93171 9.21349 5.2305 9.28217 5.5321 9.28123V9.26683Z" fill="#263238"/>
</svg>
