<svg width="95" height="221" viewBox="0 0 95 221" fill="none" xmlns="http://www.w3.org/2000/svg">
<path d="M68.8901 0.389794L67.249 4.17907H27.1727L24.7878 0.389794H5.84375C5.1249 0.38411 4.41217 0.544589 3.74649 0.862018C3.08081 1.17945 2.47528 1.64758 1.96469 2.23952C1.45409 2.83146 1.04848 3.53556 0.771153 4.31138C0.493823 5.0872 0.350235 5.91947 0.348633 6.76038V211.036C0.355069 212.303 0.574857 213.556 0.995435 214.723C1.41601 215.891 2.02913 216.95 2.79976 217.84C3.57038 218.73 4.48341 219.434 5.48664 219.911C6.48988 220.388 7.56367 220.629 8.64663 220.621H86.6663C87.7487 220.628 88.8219 220.387 89.8244 219.909C90.8269 219.431 91.7392 218.727 92.5092 217.837C93.2792 216.947 93.8917 215.889 94.3119 214.722C94.7321 213.555 94.9517 212.302 94.9581 211.036V6.76038C94.9565 5.92068 94.8133 5.0896 94.5368 4.31472C94.2602 3.53984 93.8557 2.83639 93.3464 2.24464C92.8371 1.65288 92.2331 1.18445 91.5688 0.866171C90.9045 0.547891 90.1931 0.38601 89.4753 0.389794H68.8901Z" fill="white"/>
</svg>
