<svg width="21" height="12" viewBox="0 0 21 12" fill="none" xmlns="http://www.w3.org/2000/svg">
<path d="M20.8632 8.1665V4.36283C20.8601 4.20951 20.8269 4.05907 20.7661 3.92316C20.7054 3.78726 20.6187 3.66953 20.5128 3.5791L20.439 3.52876L18.134 2.09071C18.1168 2.07664 18.1039 2.05648 18.0972 2.03319C18.0913 2.01527 18.0886 1.99615 18.0891 1.97698C18.0897 1.9578 18.0935 1.93895 18.1004 1.92153C18.1072 1.90411 18.117 1.88847 18.1291 1.87554C18.1413 1.86261 18.1555 1.85264 18.1709 1.84624L18.4475 1.73119C18.4593 1.72537 18.4699 1.71654 18.4784 1.70534C18.4869 1.69415 18.4931 1.68087 18.4967 1.66648C18.4969 1.64588 18.4909 1.62587 18.4796 1.61004C18.4683 1.59422 18.4526 1.58363 18.4352 1.5802C17.3411 1.40044 13.0815 0.753318 10.8441 1.06969C10.3689 1.12373 9.90071 1.24196 9.4488 1.42201C8.21356 1.96539 7.06312 2.74273 6.04355 3.7229L5.70549 4.04647C4.17764 4.03492 2.66507 4.40252 1.26759 5.12501C1.14615 5.18895 1.03716 5.28124 0.94732 5.39623C0.857476 5.51122 0.788667 5.64648 0.745121 5.7937L0.486963 6.69968C0.450327 6.81469 0.431593 6.93645 0.431645 7.05919V8.97181C0.431088 9.17189 0.485854 9.36682 0.587769 9.5275C0.689683 9.68819 0.833282 9.80602 0.997137 9.8634L1.12622 9.91373C1.21012 9.94216 1.29702 9.95668 1.38438 9.95687H2.26335V9.87059H2.64444C2.7355 10.2201 2.89794 10.5385 3.11773 10.7981C3.34917 11.0772 3.64078 11.2779 3.96172 11.379C4.28265 11.4801 4.62099 11.4779 4.94093 11.3725C5.26087 11.2672 5.55052 11.0626 5.77924 10.7805C6.00796 10.4984 6.16724 10.1492 6.24024 9.76993H6.62134V9.87059L15.3803 9.62612H15.5955C15.5955 9.62612 15.5955 9.56141 15.5955 9.53265H15.9643C15.9757 10.1047 16.1809 10.6481 16.5348 11.0432C16.8887 11.4383 17.3622 11.6528 17.8513 11.6394C18.3404 11.6261 18.8048 11.386 19.1426 10.972C19.4803 10.558 19.6637 10.0041 19.6523 9.43198H20.0211H20.0579L20.2301 9.33851L20.3591 9.2738C20.5074 9.19612 20.6333 9.06995 20.7216 8.91048C20.81 8.751 20.857 8.56504 20.857 8.37501V8.27435L20.8632 8.1665Z" fill="white"/>
</svg>
