<svg width="18" height="6" viewBox="0 0 18 6" fill="none" xmlns="http://www.w3.org/2000/svg">
<path opacity="0.6" d="M0.535311 5.88695C0.519535 5.88695 0.504116 5.88149 0.49099 5.87125C0.477864 5.86101 0.467621 5.84646 0.461554 5.82943C0.456535 5.8188 0.453676 5.80696 0.453197 5.79483C0.452718 5.7827 0.454631 5.77061 0.458792 5.75948C0.462952 5.74836 0.469249 5.7385 0.477189 5.73068C0.485129 5.72286 0.494501 5.71728 0.50458 5.71438C3.49338 4.55083 6.54205 3.60942 9.63238 2.89579C11.3719 2.57223 17.3034 0.860941 17.3649 0.839371C17.3852 0.835087 17.4062 0.840183 17.4234 0.85359C17.4406 0.866996 17.4526 0.887674 17.4571 0.911278C17.4598 0.922616 17.4606 0.934485 17.4592 0.946167C17.4579 0.95785 17.4546 0.969097 17.4494 0.979202C17.4442 0.989308 17.4373 0.998063 17.4291 1.00493C17.4209 1.0118 17.4116 1.01663 17.4018 1.01913C17.3403 1.01913 11.4026 2.75199 9.65697 3.07555C6.58811 3.78052 3.56006 4.70988 0.590633 5.85818L0.535311 5.88695Z" fill="black"/>
</svg>
